<?xml version="1.0" encoding="UTF-8" standalone="no"?>
<!-- Created with Inkscape (http://www.inkscape.org/) -->

<svg
   xmlns:dc="http://purl.org/dc/elements/1.1/"
   xmlns:cc="http://creativecommons.org/ns#"
   xmlns:rdf="http://www.w3.org/1999/02/22-rdf-syntax-ns#"
   xmlns:svg="http://www.w3.org/2000/svg"
   xmlns="http://www.w3.org/2000/svg"
   xmlns:sodipodi="http://sodipodi.sourceforge.net/DTD/sodipodi-0.dtd"
   xmlns:inkscape="http://www.inkscape.org/namespaces/inkscape"
   width="194.72227mm"
   height="203.11253mm"
   viewBox="0 0 194.72227 203.11253"
   version="1.1"
   id="svg4501"
   inkscape:version="0.92.1 r15371"
   sodipodi:docname="AmulettRing_Var1_20201221_0205_utanBild_svart.svg">
  <defs
     id="defs4495" />
  <sodipodi:namedview
     id="base"
     pagecolor="#ffffff"
     bordercolor="#666666"
     borderopacity="1.0"
     inkscape:pageopacity="0.0"
     inkscape:pageshadow="2"
     inkscape:zoom="0.7"
     inkscape:cx="279.06623"
     inkscape:cy="243.2253"
     inkscape:document-units="mm"
     inkscape:current-layer="layer1"
     showgrid="false"
     inkscape:window-width="2560"
     inkscape:window-height="1377"
     inkscape:window-x="2552"
     inkscape:window-y="-8"
     inkscape:window-maximized="1" />
  <metadata
     id="metadata4498">
    <rdf:RDF>
      <cc:Work
         rdf:about="">
        <dc:format>image/svg+xml</dc:format>
        <dc:type
           rdf:resource="http://purl.org/dc/dcmitype/StillImage" />
        <dc:title></dc:title>
      </cc:Work>
    </rdf:RDF>
  </metadata>
  <g
     inkscape:label="Layer 1"
     inkscape:groupmode="layer"
     id="layer1"
     transform="translate(-5.971124,-12.776094)">
    <path
       style="fill:#060000;fill-opacity:1;stroke:none;stroke-width:1.88976383;stroke-linecap:butt;stroke-linejoin:miter;stroke-miterlimit:4;stroke-dasharray:none;stroke-opacity:1"
       d="m 369.35742,48.291016 c -6.11726,-0.151059 -8.93517,4.749926 -11.38476,5.894531 -3.1679,1.480244 -8.77903,-3.178385 -11.81836,-1.767578 -10.55433,4.899152 -10.28207,17.989941 -8.50782,30.972656 -1.13515,13.755987 5.66962,33.152025 25.38282,48.162105 -11.43558,11.65271 -5.93814,30.86046 -3.33594,35.59375 2.32457,4.2283 -6.21989,9.0361 -8.08789,17.04493 -3.05142,7.42707 -11.22332,1.69089 -16.73828,3.33007 -3.20186,0.95168 -5.36351,4.08845 -4.6836,10.7168 -2.71482,3.31405 -6.63194,5.06944 -8.54882,9.24024 -0.55226,1.20161 1.64062,4.42773 1.64062,4.42773 -0.72583,1.71325 -4.31566,0.97091 -5.07031,2.75195 -0.83727,1.97602 5.20017,5.64258 3.3164,6.88086 -12.07912,7.94014 -17.01697,16.62095 -20.49023,22.79883 -3.92227,-2.13182 -7.52794,-3.75197 -10.38086,-4.35742 -14.03247,-4.98847 -32.11283,-2.15635 -46.44531,-1.84961 -2.89068,-0.12503 -5.75262,-1.37178 -7.83008,-2.77734 -2.33711,-0.86959 -4.96314,-1.10178 -7.62109,-1.09766 -2.65796,0.004 -5.34675,0.24462 -7.8086,0.32226 -2.22452,3.25639 -5.20493,2.55892 -8.8125,1.78516 -4.00517,-0.22624 -8.10826,0.0885 -10.60742,3.53516 -6.82083,0.21048 -14.30478,-1.30468 -18.94141,4.29297 -0.32035,3.88287 -3.85418,-2.28552 -5.55468,-2.52539 -2.93598,-0.52424 -7.00765,-0.65279 -8.83985,1.76757 -3.5826,-0.46799 -3.81599,5.61326 -5.80859,4.54688 -2.25877,-1.62705 -10.71451,-2.22493 -11.36328,1.51562 -1.20718,2.4206 -0.0229,6.17698 -2.01953,5.05079 -3.8358,-1.9207 -8.26101,1.37075 -7.07227,5.55468 -3.74005,-0.65548 -7.84794,-0.12472 -8.83789,4.29297 -3.15563,3.9344 1.9612,6.55969 2.77734,10.35547 2.16226,2.74813 2.9134,5.88045 -0.92578,8.30273 -1.99076,3.06279 -4.61061,5.5686 -5.89257,9.375 -1.30409,2.5051 -0.85487,6.7366 -2.27344,8.58594 -2.1468,13.70714 -1.71287,16.90964 -1.51563,29.41602 0.95739,9.35358 -1.10156,25.63563 7.59766,40.03125 17.86634,42.47963 76.44828,57.07093 116.16797,38.6582 0.59478,-0.23786 1.22779,-0.45362 1.875,-0.66211 1.5911,13.45421 4.20134,26.84254 6.54687,40.06055 3.08506,10.54801 6.89331,21.23772 11.64063,31.47656 -3.41072,4.46908 -7.85512,7.66856 -16.10547,5.47852 -9.79718,-8.98186 -15.82945,-0.32364 -19.85352,4.38086 -2.32747,2.7211 -0.002,-6.5e-4 -13.63281,-1.52735 -9.00543,5.492 -6.40903,9.82508 -6.44336,14.41992 -0.0539,7.21762 -9.09567,-6.53833 -15.34375,5.98438 -5.9856,8.11914 11.44326,15.75779 -3.49609,17.33008 -18.29961,7.74232 -44.48701,31.12219 -62.72852,39.13672 -10.24008,2.49637 -90.130248,54.05843 -106.017576,63.36132 0,0 -9.181948,11.48403 5.148437,26.41407 8.930194,7.9539 19.80225,16.04699 19.22461,16.1914 19.180976,2.22558 141.648119,-96.91982 189.181639,-115.38281 7.55867,6.9919 31.50641,11.72509 25.5625,-5.73633 13.76203,2.59329 23.01765,-15.34228 12.10938,-25.16406 -8.37713,-8.07897 -2.9247,-11.92862 3.47851,-13.41602 2.40738,-0.5592 5.01289,-0.79156 7.66602,-0.94726 9.35284,11.40027 20.80868,20.87253 34.93554,26.98828 8.44347,3.62867 17.22675,7.14023 26.20508,10.12891 0.0185,0.61739 0.0402,1.22629 0.0781,1.79101 -0.12101,9.24314 -0.33838,18.71726 0.84961,23.64649 1.03954,4.31334 3.99138,4.14311 -2.06641,10.60546 -4.40169,3.07813 -3.65234,8.89844 -3.65234,8.89844 0.5492,-3.63915 3.01562,6.11524 3.01562,6.11524 -9.11374,24.77752 -60.20055,186.37555 -59.27148,207.10156 0.41646,9.29051 15.07966,9.15 32.79883,10.16406 19.39524,-52.798 34.26184,-118.30058 49.35156,-168.32422 19.15429,-47.71899 3.26015,-33.96604 16.5,-40.42578 11.09525,-2.42842 14.29274,-19.44874 8.91406,-28.20508 -1.86376,-3.03409 -4.75779,-3.19057 -8.70898,-3.98242 l 1.78515,-0.71289 c -1.39301,0.55696 -1.32605,-10.05468 -2.31836,-18.61328 8.89197,0.66824 17.80362,0.27574 26.6211,-1.55469 11.51691,25.45224 28.04244,48.87522 37.96093,74.98633 24.6909,49.07958 47.8655,101.67709 93.08985,135.93945 5.89345,4.03431 13.04601,7.31533 20.36133,6.02735 14.93049,-13.37964 9.38972,-35.50981 3.55859,-51.93946 -11.34437,-37.12025 -20.99388,-75.02652 -37.88867,-110.14453 -10.49836,-30.10215 -23.8006,-61.77645 -39.18164,-90.73437 3.4023,-2.18841 8.82816,-6.29429 14.85156,-12.16211 1.08407,0.0524 2.17728,0.0605 3.27734,0.0176 7.14271,0.72298 17.65227,-10.70511 15.78125,2.96484 0.30728,13.22823 15.9189,2.39531 17.41211,13.53906 5.80324,2.81707 10.58541,-3.45141 14.49805,-6.70898 21.05911,9.43249 170.52257,97.46813 182.48633,97.51367 7.21035,0.0265 11.13586,5.17177 14.33984,-5.41016 2.21817,-9.1683 12.11191,-26.51836 -3.63281,-27.72656 -58.51574,-31.75351 -113.39653,-55.15762 -164.7207,-87.47851 -8.3576,-2.55444 -15.95592,-9.10868 -8.26953,-16.29493 -0.85837,-4.61737 -6.38324,-7.15112 -10.08204,-7.9082 -4.70078,-0.96219 -7.77055,0.0654 -8.96484,-6.27539 -6.26956,-6.33124 -14.40393,1.38624 -18.2832,3.52734 -1.4519,-2.24586 -2.99673,-4.50163 -4.63477,-6.71875 10.83181,-35.71544 23.56529,-54.58225 0.35742,-159.71484 -2.76771,-14.61198 -20.20223,-44.07346 -37.45898,-66.80273 -13.85979,-18.25502 -33.75013,-22.14894 -32.6543,-26.47657 -0.1765,-5.61111 0.47845,-17.30756 -5.46289,-20.91797 -3.085,-1.87469 -11.557,-9.25937 -23.5039,-8.77343 -10.57036,0.42994 -11.01114,8.26826 -13.86915,4.62109 -5.43896,-6.94081 -9.30412,-3.81685 -11.40429,-5.89844 -1.04708,-0.68362 -6.71383,2.48416 -7.71094,1.65235 -2.91579,-2.43245 -9.31764,-9.56707 -11.31055,-13.26563 -3.31668,-6.15535 -0.94792,-10.03065 -0.57031,-16.74023 0.20221,-3.59608 -7.21859,-13.42087 -3.11523,-13.60742 3.24536,-0.14756 9.42456,-5.97933 10.04297,-13.26172 9.33192,-39.874376 -9.33453,-60.120723 -11.03516,-62.423831 0.0605,-6.875467 -8.54224,-9.021164 -16.50977,-9.152344 -0.43801,-0.0576 -0.86171,-0.08954 -1.26953,-0.09961 z m 8.05469,130.289064 c 2.54806,-0.004 5.11052,1.68233 4.98242,5.49414 0.30652,0.68596 0.84669,1.36927 0.71289,2.16211 -0.21037,0.86762 -1.28109,0.65255 -1.93359,0.55273 -1.44692,0.11422 -2.90672,-0.11361 -4.34961,0.0898 -1.01248,0.0169 -1.66571,1.01459 -2.66406,1.0664 -1.00075,-0.20266 -2.02313,0.08 -3.02735,-0.0801 -1.16903,-0.16365 -1.81945,-1.3833 -1.8789,-2.46679 0.0302,-0.83802 1.79131,-1.8098 2.37109,-2.51758 0.48147,-0.40548 0.20027,-3.27583 2.57422,-3.28906 0.898,-0.65937 2.05468,-1.00996 3.21289,-1.01172 z m 66.10937,9.95117 c 0.356,-0.004 0.71255,0.007 1.06836,0.0449 1.39824,0.10264 2.40775,1.17388 3.51368,1.91016 2.13112,1.3841 4.05313,3.20715 5.14843,5.5332 0.54694,0.89169 0.56217,1.96039 0.45899,2.9707 -0.009,0.95875 0.40719,2.55121 -0.99414,2.73047 -0.95339,-0.11369 -1.5752,-1.14141 -2.53516,-1.39453 -2.37766,-1.62699 -5.21414,-2.37784 -8.00781,-2.92187 -1.08828,-0.71732 -2.34135,-1.15705 -3.6211,-1.37891 -1.0131,-0.67531 -2.36639,-0.14094 -3.375,-0.82812 -1.19047,-0.006 -2.37983,0.004 -3.57031,0 -3.8e-4,-0.24197 0.0924,-0.47489 0.22852,-0.67188 0.81135,-0.84766 1.8544,-1.46479 2.63476,-2.35937 1.77691,-1.38673 3.5458,-3.03776 5.84961,-3.43164 1.06526,-0.0344 2.1332,-0.19049 3.20117,-0.20313 z m -74.04687,16.64453 c 14.41646,-0.38852 17.19433,20.8904 30.82812,21.62695 15.69291,7.41233 28.11704,-11.30975 42.38086,-0.95312 19.54579,9.9721 36.43837,25.2507 49.36719,42.86719 9.30701,18.45874 21.07968,36.67715 23.03906,57.80273 8.03331,18.19685 5.34024,38.57321 8.39844,57.77539 1.71714,19.24011 -0.86239,38.7554 -7.58984,56.76172 -1.02562,-0.60761 -2.06897,-1.1895 -3.14649,-1.71484 -5.71925,-1.75369 -12.26761,-3.12194 -18.66992,-3.16016 -6.40231,-0.0382 -12.65881,1.25459 -17.79492,4.82422 -11.29663,8.81125 -13.27247,25.31797 -9.48633,38.32812 1.77407,3.30627 3.93985,6.46044 6.39649,9.38868 -3.99552,-3.88173 -9.82453,-5.27146 -14.56836,-9.14454 -10.8587,-9.69682 -18.67877,-27.98083 -19.00782,-42.43945 -0.0782,-3.43321 6.23526,-10.4442 6.8125,-13.82812 -17.87161,-17.42425 -33.64018,-21.89434 -50.6875,-21.53516 -3.93399,0.0829 -7.93731,0.42248 -12.04882,0.91992 -13.78294,11.80993 -13.54069,44.19992 -10.76954,57.41016 8.20646,13.12577 5.02335,7.30521 19.30274,15.16406 6.80183,6.6271 18.7799,22.11406 17.87891,34.55664 -0.35906,4.95806 -7.99028,13.19394 -7.1875,18.39453 0,0 0.24985,0.53659 0.60937,1.35157 -3.38889,0.23985 -6.77011,0.47796 -10.11914,0.77539 -4.12334,-0.34824 -8.27644,-0.76055 -12.42969,-1.24414 -0.4865,-3.96076 -1.20139,-7.89814 -2.86328,-11.7129 -1.20357,-5.925 -7.30916,-18.45623 -12.13086,-19.59765 -1.30546,-0.30903 -2.66668,-0.49686 -3.99414,-0.47656 -3.98237,0.0609 -7.66654,1.99422 -8.66406,8.14843 -0.79186,4.66653 -1.77571,11.10978 -2.61719,17.82813 -4.94526,-1.45957 -9.79135,-3.20606 -14.48047,-5.33985 -6.70381,-3.96323 -12.94789,-8.63934 -18.52148,-13.98437 7.60708,-3.43167 14.66308,-8.09372 20.87695,-13.625 0.92831,-21.89378 0.50201,-25.55452 -17.24805,-36.53711 -2.57602,-0.93844 -5.22178,-1.38371 -7.89648,-1.4375 -8.73008,-0.17556 -17.75308,3.83798 -25.57031,8.62109 -2.40828,-4.76945 -4.23602,-9.80447 -4.92774,-15.38085 -3.75816,-15.29117 -5.43964,-30.95902 -5.74609,-46.69141 9.8422,-5.6638 19.02237,-13.71384 29.1289,-18.35547 8.68807,-8.01317 18.65662,-14.08066 24.24415,-23.99023 12.19677,-12.7721 22.16866,-45.16649 15.91015,-64.14454 -0.73568,-4.96464 -2.84916,-9.55521 -5.30273,-13.89062 -3.61972,-4.35805 -5.79861,-11.08987 -9.88477,-14.84961 -2.33387,-1.42112 -5.22301,-3.34775 -8.35547,-5.45312 5.21819,-5.76239 10.24045,-11.6672 14.63086,-17.99415 6.15137,-6.24548 12.62756,1.0358 17.76172,-7.50585 18.42516,-4.33577 -3.29725,-19.73671 11.0957,-27.17969 1.07121,-0.231 2.08578,-0.35301 3.04688,-0.37891 z m -112.54688,57.14258 c 0.28922,0.003 0.59866,0.0221 0.9336,0.0566 9.06047,2.27987 17.27583,3.64747 26.33984,5.99023 -7.19269,12.58995 -12.43135,26.25711 -18.36719,39.94922 -3.83824,16.28835 -5.77762,12.96211 -11.26757,41.38282 -5.81509,5.06575 -10.60851,10.59478 -16.67579,16.21875 -3.61114,3.26477 -15.6139,8.96038 -18.93945,12.37304 -1.34714,3.79166 -28.355,4.97451 -36.11328,0.75782 -5.96409,-1.61439 -20.22402,-15.48617 -23.21289,-21.99024 -4.49105,-7.78993 -7.49588,-19.56995 -5.83008,-32.30469 -0.13038,-4.1193 0.47168,-7.47507 0.7793,-11.61718 0.95524,-3.38396 1.28852,-7.02427 1.76758,-10.60547 1.15394,-3.47666 1.4176,-8.25427 1.49414,-12.12305 2.25186,-0.45772 4.07839,-1.4022 5.55664,-3.2832 -0.35268,-3.48213 7.51741,-1.27267 15.4043,-5.75782 -1.07849,-4.45243 1.00339,-3.45661 4.54492,-2.57617 3.17949,0.30356 6.75654,-9.8523 5.53711,-10.90039 -1.04205,-1.1469 3.10126,-2.5763 5.86914,-2.73633 5.52759,-1.52776 3.05514,4.14014 7.05078,5.82813 2.37508,3.18273 6.01973,7.95077 11.08984,6.04101 3.42359,0.0684 9.93133,-3.01574 8.58789,-5.80859 2.60993,1.66273 3.59751,3.18582 6.57617,3.69141 2.49901,-2.41093 8.35615,0.3893 9.58594,-2.9336 0.50615,-2.49995 11.32613,1.41327 13.01367,-3.76367 2.4791,-2.52578 1.93719,-5.92879 6.27539,-5.88867 z m 48.90235,17.32422 c 1.11051,1.01931 2.2011,2.01754 3.27734,2.93554 2.98462,3.32933 4.86487,7.69134 7.07031,11.36329 0.007,23.35176 1.21627,39.11216 -29.54687,44.19531 -1.90195,0.87867 -3.59941,1.40087 -5.16211,1.72266 4.51879,-21.2554 17.42211,-39.71629 24.36133,-60.2168 z m 182.88086,173.37109 c 6.47599,1.31269 12.97701,2.84275 19.01172,5.59571 -1.6497,2.91597 -3.41589,5.77139 -5.3125,8.55078 -3.16834,6.08026 -6.32463,12.22556 -9.9668,18.04492 -2.42354,-1.145 -4.73033,-2.52895 -6.84375,-4.27344 -4.18046,-2.56392 -6.94291,-7.94367 -5.36133,-12.78906 -0.53431,-4.61552 0.98934,-9.54369 4.4043,-12.76563 0.4221,-1.7726 2.45246,-2.40485 4.06836,-2.36328 z m -177.10547,26.09766 c 1.01991,-0.0403 2.08561,0.64852 2.33203,1.66601 1.05467,1.13515 1.58941,2.88055 0.9668,4.35547 -1.27742,1.27234 -2.56416,2.53255 -3.83203,3.81446 -1.98553,0.002 -3.97128,9.7e-4 -5.95704,0 -1.03843,-1.56732 -2.0186,-3.17825 -2.95312,-4.82032 2.92966,-1.36548 5.38062,-3.66262 8.4707,-4.71679 0.29774,-0.19028 0.63269,-0.28538 0.97266,-0.29883 z m 211.58398,5.50781 c -0.12382,2.49791 -0.95725,5.00968 -3.08984,6.45508 -0.51928,0.21393 -1.0613,0.31662 -1.61328,0.37305 1.61257,-2.16419 3.18506,-4.44624 4.70312,-6.82813 z m -48.41797,5.91211 c 2.47808,2.70714 5.21854,5.18085 8.19141,7.3125 -0.74004,0.80318 -1.50547,1.58715 -2.29101,2.35742 -1.75831,-2.98944 -3.53128,-5.95095 -5.33399,-8.84961 -0.17884,-0.28757 -0.37251,-0.5543 -0.56641,-0.82031 z m -20.47265,18.94727 c 2.17988,-0.0776 4.17186,1.77152 6.41601,1.25586 0.40407,0.1568 0.79052,0.35406 1.16016,0.58007 0.85391,0.67477 1.66359,1.40046 2.44141,2.16016 -6.38406,3.31634 -13.30451,5.75598 -19.90625,8.80859 -1.19787,0.48948 -2.4072,0.9319 -3.62305,1.35157 0.61932,-6.68947 5.77949,-12.98732 12.56445,-13.99219 0.32043,-0.10219 0.63586,-0.15298 0.94727,-0.16406 z m 19.26562,20.65039 c 0.11533,3.34804 1.62064,6.94717 -0.16797,10.09765 -2.86541,2.98923 -5.16782,6.73441 -8.99414,8.61914 -3.35051,1.4157 -6.85717,-0.33894 -9.93945,-1.63086 -2.31568,-0.80702 -4.40266,-2.06915 -6.21875,-3.64648 7.36406,-2.53579 14.91502,-6.09435 25.32031,-13.43945 z m -112.02343,21.27148 c 2.337,0.61163 4.68198,1.17553 7.03515,1.68164 0.006,0.0193 0.008,0.0392 0.0137,0.0586 1.3384,3.80996 0.0554,7.82642 -0.86328,11.57227 -0.17151,2.16737 -0.85483,4.77576 -3.08398,5.66406 0.24671,-1.01748 0.0223,-2.08359 -0.35547,-3.03906 -2.60004,-4.8199 -1.78588,-8.82677 -2.74609,-15.9375 z"
       transform="scale(0.26458333)"
       id="path4514"
       inkscape:connector-curvature="0" />
    <path
       style="fill:#fffffa;fill-opacity:1;stroke:#fffffd;stroke-width:1;stroke-linecap:butt;stroke-linejoin:miter;stroke-miterlimit:4;stroke-dasharray:none;stroke-opacity:1"
       d="m 142.40253,135.88764 c 0.56298,-2.16749 2.90433,-3.57001 3.69151,-5.41206 1.40173,-1.21792 2.13239,-2.97684 2.83239,-4.65067 0.071,-0.26121 0.10903,-0.53338 0.0912,-0.80426"
       id="path4654"
       inkscape:connector-curvature="0"
       sodipodi:nodetypes="cccc" />
    <path
       style="fill:#fffffa;fill-opacity:1;stroke:#fffffd;stroke-width:1;stroke-linecap:butt;stroke-linejoin:miter;stroke-miterlimit:4;stroke-dasharray:none;stroke-opacity:1"
       d="m 142.73388,123.26171 c 0.55878,0.0909 0.84731,0.8727 0.46714,1.29791 -0.60288,1.51722 -0.90731,3.20021 -1.9581,4.49959 -0.45024,0.65376 -0.76756,1.4472 -1.47126,1.88078 -0.34942,0.23704 -0.66964,0.51264 -0.95917,0.81878 -0.15584,0.13861 -0.34783,0.27451 -0.56764,0.25352"
       id="path4656"
       inkscape:connector-curvature="0" />
    <path
       style="fill:#fffffa;fill-opacity:1;stroke:#fffffd;stroke-width:1;stroke-linecap:butt;stroke-linejoin:miter;stroke-miterlimit:4;stroke-dasharray:none;stroke-opacity:1"
       d="m 92.032134,154.43139 c 1.178139,-0.27212 2.394154,-0.38869 3.601485,-0.30486 1.132047,0.002 2.264094,-0.003 3.396141,-0.001 0.759818,-0.38176 1.63873,-0.22458 2.44025,-0.42142 0.43364,-0.13803 0.79105,-0.53527 0.79889,-1.0032 0.0245,-0.18639 0.0314,-0.37509 0.0681,-0.55982"
       id="path4839"
       inkscape:connector-curvature="0" />
    <path
       style="fill:#fffffa;fill-opacity:1;stroke:#fffffd;stroke-width:1;stroke-linecap:butt;stroke-linejoin:miter;stroke-miterlimit:4;stroke-dasharray:none;stroke-opacity:1"
       d="m 91.863507,158.40355 c 0.654208,0.19158 1.343904,0.17548 2.018185,0.15123 0.820193,0.52433 1.835406,0.43232 2.762315,0.39197 0.850698,-0.018 1.701525,0.005 2.552286,-1.3e-4 0.807077,-0.42231 1.815367,-0.26182 2.570237,-0.80898 0.17855,-0.0826 0.4214,-0.10291 0.57055,0.0493"
       id="path4854"
       inkscape:connector-curvature="0" />
    <path
       style="fill:#fffffa;fill-opacity:1;stroke:#fffffd;stroke-width:1;stroke-linecap:butt;stroke-linejoin:miter;stroke-miterlimit:4;stroke-dasharray:none;stroke-opacity:1"
       d="m 70.003995,145.53271 c -0.17098,-1.08741 -0.850782,-2.07026 -1.778037,-2.65451 -1.133569,-1.51249 -3.122278,-1.99379 -4.348248,-3.40641 -2.332239,-1.97631 -4.405503,-4.25512 -6.897774,-6.04121"
       id="path4973"
       inkscape:connector-curvature="0" />
    <path
       style="fill:#fffffa;fill-opacity:1;stroke:#fffffd;stroke-width:1;stroke-linecap:butt;stroke-linejoin:miter;stroke-miterlimit:4;stroke-dasharray:none;stroke-opacity:1"
       d="m 72.38244,137.96651 c -0.527818,-0.13543 -0.892262,-0.61539 -1.43225,-0.72015 -0.664212,-0.71793 -1.478298,-1.27385 -2.296688,-1.79622 -0.974198,-0.91669 -2.009019,-1.76626 -3.077758,-2.56951 -0.767129,-0.6281 -1.514083,-1.28971 -2.148939,-2.0543 -0.09316,-0.0871 -0.194223,-0.16641 -0.304762,-0.2304"
       id="path4975"
       inkscape:connector-curvature="0" />
    <path
       style="fill:#fffffa;fill-opacity:1;stroke:#fffffd;stroke-width:1;stroke-linecap:butt;stroke-linejoin:miter;stroke-miterlimit:4;stroke-dasharray:none;stroke-opacity:1"
       d="m 101.5811,29.392848 c 0.96988,0.08405 1.83943,-0.935025 1.62045,-1.879649 0.0997,-1.033007 0.58431,-2.059484 0.30213,-3.104627 -0.8232,-1.541377 -0.49965,-3.441724 -1.42418,-4.944107 -0.39815,-0.426332 -0.49023,-1.107073 -1.01906,-1.411068 -0.53684,-0.174795 -0.95376,0.45063 -0.89842,0.932552 -0.004,1.443398 0.83705,2.73138 0.86961,4.172418 0.0228,0.553567 -0.10459,1.106569 0.0118,1.657215 0.0776,0.64723 0.30652,1.272974 0.35272,1.921641 -0.0257,0.60956 0.0617,1.242839 0.39096,1.766495 0.0991,0.296477 0.12434,0.726091 -0.20605,0.88913 z"
       id="path5122"
       inkscape:connector-curvature="0" />
    <path
       style="fill:#fffffa;fill-opacity:1;stroke:#fffffd;stroke-width:1;stroke-linecap:butt;stroke-linejoin:miter;stroke-miterlimit:4;stroke-dasharray:none;stroke-opacity:1"
       d="m 96.051295,34.806688 c 0.795652,-0.887784 1.31994,-2.080092 1.175777,-3.288113 0.03933,-1.02139 -0.01924,-2.043396 0.0075,-3.064952 -1.413491,-3.236028 -2.526002,-6.662392 -2.782254,-10.201708 -0.05622,-1.258889 0.189006,-2.504136 0.424148,-3.730049 l -0.0044,-0.153517"
       id="path5160"
       inkscape:connector-curvature="0" />
    <path
       style="fill:#fffffa;fill-opacity:1;stroke:#fffffd;stroke-width:1;stroke-linecap:butt;stroke-linejoin:miter;stroke-miterlimit:4;stroke-dasharray:none;stroke-opacity:1"
       d="m 101.86458,36.19642 c 0.0301,0.499007 -0.56637,0.766439 -0.53787,1.265073 -0.3821,1.002543 -1.30666,1.660093 -1.75933,2.621947 -0.416298,0.639955 -1.157043,0.917848 -1.808941,1.244138 -1.130254,0.691808 -2.03392,1.755806 -2.508414,2.99531"
       id="path5177"
       inkscape:connector-curvature="0" />
    <path
       style="fill:#fffffa;fill-opacity:1;stroke:#fffffd;stroke-width:1;stroke-linecap:butt;stroke-linejoin:miter;stroke-miterlimit:4;stroke-dasharray:none;stroke-opacity:1"
       d="m 107.01451,46.732504 c -0.66488,0.997207 -0.34222,2.243762 -0.52396,3.358216 -0.10084,1.997858 -0.55521,4.034154 -0.0637,6.014297 0.20287,0.882123 0.63276,1.70291 0.7194,2.612054 0.0838,0.473181 0.14536,0.987777 0.43576,1.386369"
       id="path5259"
       inkscape:connector-curvature="0" />
    <path
       style="fill:#fffffa;fill-opacity:1;stroke:#fffffd;stroke-width:1;stroke-linecap:butt;stroke-linejoin:miter;stroke-miterlimit:4;stroke-dasharray:none;stroke-opacity:1"
       d="m 111.88095,48.149917 c 0.0378,1.110111 -0.24815,2.209947 -0.14218,3.320356 -0.13795,1.424343 -0.64869,2.840403 -0.39009,4.281943 0.0532,0.854553 0.38638,1.664093 0.76862,2.414782 -4.6e-4,0.01556 -9.3e-4,0.03111 -0.001,0.04667"
       id="path5261"
       inkscape:connector-curvature="0" />
    <path
       style="fill:#fffffa;fill-opacity:1;stroke:#fffffd;stroke-width:1;stroke-linecap:butt;stroke-linejoin:miter;stroke-miterlimit:4;stroke-dasharray:none;stroke-opacity:1"
       d="m 102.90402,43.188979 c -0.2208,0.01994 -0.27053,0.290833 -0.23477,0.470028 -0.001,0.264686 -0.2189,0.4515 -0.34275,0.66592 -0.32937,0.486987 -0.66283,0.971774 -0.96841,1.474119 -0.22297,0.306122 -0.4391,0.619019 -0.64008,0.938828 -0.0926,0.08966 -0.22315,0.150368 -0.27079,0.27815"
       id="path5263"
       inkscape:connector-curvature="0" />
    <path
       style="fill:#fffffa;fill-opacity:1;stroke:#fffffd;stroke-width:1;stroke-linecap:butt;stroke-linejoin:miter;stroke-miterlimit:4;stroke-dasharray:none;stroke-opacity:1"
       d="m 102.85677,46.590764 c -1.15294,3.08192 -2.01164,3.727533 -1.86378,7.066245 0.11286,0.472938 0.37128,0.891976 0.54144,1.343756"
       id="path5326"
       inkscape:connector-curvature="0"
       sodipodi:nodetypes="ccc" />
    <path
       style="fill:#fffffa;fill-opacity:1;stroke:#fffffd;stroke-width:1;stroke-linecap:butt;stroke-linejoin:miter;stroke-miterlimit:4;stroke-dasharray:none;stroke-opacity:1"
       d="m 85.533327,56.066631 c 0.34332,0.319996 0.858974,0.409105 1.304428,0.287936 0.42399,0.128065 0.598415,0.627255 1.029911,0.741863 1.30414,1.109478 3.050274,1.59955 4.218437,2.884028 0.403016,0.502461 0.75123,1.114075 1.376145,1.368645 0.08815,0.02541 0.141411,-0.148232 0.03969,-0.158933"
       id="path5417"
       inkscape:connector-curvature="0" />
    <path
       style="fill:#fffffa;fill-opacity:1;stroke:#fffffd;stroke-width:1;stroke-linecap:butt;stroke-linejoin:miter;stroke-miterlimit:4;stroke-dasharray:none;stroke-opacity:1"
       d="m 87.360936,52.45046 c 1.124634,0.202382 1.959096,1.044376 2.906607,1.611956 0.395132,0.290256 0.718242,0.673731 1.156134,0.906183 0.813607,0.544369 1.627624,1.136026 2.584636,1.39946 0.652509,0.288061 1.097739,0.874878 1.525191,1.420308"
       id="path5419"
       inkscape:connector-curvature="0" />
    <path
       style="fill:#fffffa;fill-opacity:1;stroke:#fffffd;stroke-width:1;stroke-linecap:butt;stroke-linejoin:miter;stroke-miterlimit:4;stroke-dasharray:none;stroke-opacity:1"
       d="m 89.911086,53.48883 c 0.274285,-0.196378 0.627444,-0.197466 0.950705,-0.191089 0.656775,-0.249668 1.358379,-0.04413 2.032727,-0.01382 0.54786,0.155157 1.095814,0.316636 1.656191,0.418437 0.789176,0.263235 1.579491,0.53562 2.400189,0.684192"
       id="path5421"
       inkscape:connector-curvature="0" />
    <path
       style="fill:#fffffa;fill-opacity:1;stroke:#fffffd;stroke-width:1;stroke-linecap:butt;stroke-linejoin:miter;stroke-miterlimit:4;stroke-dasharray:none;stroke-opacity:1"
       d="m 38.01909,70.35543 c 1.136361,2.310752 2.780392,4.558063 5.211902,5.612543"
       id="path5561"
       inkscape:connector-curvature="0" />
    <path
       style="fill:#fffffa;fill-opacity:1;stroke:#fffffd;stroke-width:1;stroke-linecap:butt;stroke-linejoin:miter;stroke-miterlimit:4;stroke-dasharray:none;stroke-opacity:1"
       d="m 35.702729,74.891034 c 2.261781,-0.839411 4.149286,1.113079 6.058062,1.945635"
       id="path5563"
       inkscape:connector-curvature="0" />
    <path
       style="fill:#fffffa;fill-opacity:1;stroke:#fffffd;stroke-width:1;stroke-linecap:butt;stroke-linejoin:miter;stroke-miterlimit:4;stroke-dasharray:none;stroke-opacity:1"
       d="m 40.157246,67.482283 c 2.176109,2.473634 3.415244,6.468528 7.149439,6.962257"
       id="path5565"
       inkscape:connector-curvature="0" />
    <path
       style="fill:#fffffa;fill-opacity:1;stroke:#fffffd;stroke-width:1;stroke-linecap:butt;stroke-linejoin:miter;stroke-miterlimit:4;stroke-dasharray:none;stroke-opacity:1"
       d="m 42.963269,65.611499 c 1.857696,2.711713 4.03152,5.444787 7.149798,6.74848"
       id="path5567"
       inkscape:connector-curvature="0" />
    <path
       style="fill:#fffffa;fill-opacity:1;stroke:#fffffd;stroke-width:1;stroke-linecap:butt;stroke-linejoin:miter;stroke-miterlimit:4;stroke-dasharray:none;stroke-opacity:1"
       d="m 49.645315,65.410944 c 0.531992,1.598889 3.204317,2.824181 1.881763,4.743946"
       id="path5569"
       inkscape:connector-curvature="0" />
    <path
       style="fill:#fffffa;fill-opacity:1;stroke:#fffffd;stroke-width:1;stroke-linecap:butt;stroke-linejoin:miter;stroke-miterlimit:4;stroke-dasharray:none;stroke-opacity:1"
       d="m 53.320259,63.473128 c 2.049752,2.334683 0.907577,6.066828 3.274082,8.218669"
       id="path5571"
       inkscape:connector-curvature="0" />
    <path
       style="fill:#fffffa;fill-opacity:1;stroke:#fffffd;stroke-width:1;stroke-linecap:butt;stroke-linejoin:miter;stroke-miterlimit:4;stroke-dasharray:none;stroke-opacity:1"
       d="m 57.930668,63.673693 c 1.906296,2.038256 0.66259,5.969215 3.674991,7.149487"
       id="path5573"
       inkscape:connector-curvature="0" />
    <path
       style="fill:#fffffa;fill-opacity:1;stroke:#fffffd;stroke-width:1;stroke-linecap:butt;stroke-linejoin:miter;stroke-miterlimit:4;stroke-dasharray:none;stroke-opacity:1"
       d="m 64.612593,63.005456 c -3.063721,0.688101 -1.667317,4.835747 0.200283,6.013635"
       id="path5575"
       inkscape:connector-curvature="0" />
  </g>
</svg>
