<?xml version="1.0" encoding="UTF-8" standalone="no"?>
<!-- Created with Inkscape (http://www.inkscape.org/) -->

<svg
   xmlns:dc="http://purl.org/dc/elements/1.1/"
   xmlns:cc="http://creativecommons.org/ns#"
   xmlns:rdf="http://www.w3.org/1999/02/22-rdf-syntax-ns#"
   xmlns:svg="http://www.w3.org/2000/svg"
   xmlns="http://www.w3.org/2000/svg"
   xmlns:sodipodi="http://sodipodi.sourceforge.net/DTD/sodipodi-0.dtd"
   xmlns:inkscape="http://www.inkscape.org/namespaces/inkscape"
   width="45.545017mm"
   height="82.131744mm"
   viewBox="0 0 45.545017 82.131744"
   version="1.1"
   id="svg8"
   inkscape:version="0.92.1 r15371"
   sodipodi:docname="Hjälm_Vendel_20201219_Lö.svg">
  <defs
     id="defs2" />
  <sodipodi:namedview
     id="base"
     pagecolor="#ffffff"
     bordercolor="#666666"
     borderopacity="1.0"
     inkscape:pageopacity="0.0"
     inkscape:pageshadow="2"
     inkscape:zoom="2.0963885"
     inkscape:cx="-53.416566"
     inkscape:cy="190.79173"
     inkscape:document-units="mm"
     inkscape:current-layer="layer1"
     showgrid="false"
     inkscape:window-width="2560"
     inkscape:window-height="1377"
     inkscape:window-x="2552"
     inkscape:window-y="-8"
     inkscape:window-maximized="1" />
  <metadata
     id="metadata5">
    <rdf:RDF>
      <cc:Work
         rdf:about="">
        <dc:format>image/svg+xml</dc:format>
        <dc:type
           rdf:resource="http://purl.org/dc/dcmitype/StillImage" />
        <dc:title />
      </cc:Work>
    </rdf:RDF>
  </metadata>
  <g
     inkscape:label="Layer 1"
     inkscape:groupmode="layer"
     id="layer1"
     transform="translate(-3.9118827,1.4108907)">
    <g
       id="g4640">
      <path
         inkscape:connector-curvature="0"
         id="path4496"
         transform="scale(0.26458333)"
         d="m 100.25195,-3.9023438 -2.812497,0.8261719 -5.458984,2.64843752 -4.466797,4.13476558 -2.482422,3.640625 -1.818359,2.8105468 -1.820313,3.640625 -1.158203,3.142578 -0.166016,2.482422 2.150391,1.158203 -10.089844,0.992188 -6.783203,2.8125 -4.466797,0.496093 L 55.75,27.199219 53.765625,29.513672 41.027344,37.125 l -3.47461,1.488281 -1.488281,4.632813 -5.955078,7.77539 -4.136719,9.925782 -2.15039,1.654296 0.496093,1.984376 0.166016,1.654296 -2.978516,10.25586 -2.480468,16.21289 -2.8125,16.378906 0.660156,7.60938 0.994141,8.93359 2.480468,18.69336 2.316406,12.24219 2.150391,4.96289 3.142578,2.48047 3.47461,2.15039 4.796875,1.82031 5.957031,1.48828 3.142578,0.99414 0.166016,4.13477 0.496093,8.60351 0.992188,5.62305 1.820312,5.625 3.308594,7.60937 3.970703,5.79102 3.142578,4.63281 4.962891,4.30078 7.941406,6.28516 4.134766,1.6543 5.791016,1.32422 4.796874,0.49609 7.113282,1.48828 6.949216,0.33203 h 5.29297 l 7.44336,-0.82812 h 5.46094 l 2.15039,0.82812 1.1582,3.14258 1.32227,6.61719 2.64648,10.09179 1.49024,10.58789 1.1582,7.77539 0.66016,7.44336 0.33203,10.5879 0.33008,6.12109 0.6621,6.28711 0.16602,2.48047 1.98438,1.98633 c 0,0 2.31678,0.66131 2.97851,0.99218 0.66172,0.33086 6.61757,1.32364 7.2793,1.15821 0.66172,-0.16543 9.09765,-0.16602 9.09765,-0.16602 l 5.95508,-1.48828 c 0,0 1.3246,-1.48887 1.98633,-1.6543 0.66173,-0.16543 5.625,-3.30859 5.625,-3.30859 l 1.32227,-1.98633 1.82031,-2.15039 1.82031,-3.30859 0.33008,-3.47461 -0.99219,-1.98438 -1.82031,-3.47461 c 0,0 -1.15742,-1.98534 -1.48828,-2.8125 -0.33086,-0.82716 -1.6543,-4.63183 -1.6543,-5.45898 0,-0.82716 -1.82031,-6.28516 -1.82031,-6.28516 l -2.15039,-7.11328 -0.99219,-7.77539 -1.6543,-7.2793 -0.49609,-7.44531 -0.82813,-6.28516 -0.66211,-8.4375 14.0625,-5.1289 4.30079,-3.63867 2.48242,-2.8125 2.8125,-4.79883 1.1582,-3.14258 1.32227,-5.12891 0.82812,-3.47265 0.99219,-4.13672 0.33008,-4.63086 -0.66211,-4.96289 -1.15625,-10.91992 -0.66211,-5.95508 -0.66211,-4.96289 v -1.32422 l 2.48047,-1.98438 0.99414,-0.99218 -0.33203,-3.47461 -0.33008,-3.80469 -0.82813,-4.13672 0.66211,-2.48047 0.33203,-1.98437 -0.82812,-0.99414 -0.99219,-3.63868 -1.1582,-5.1289 -0.82813,-3.3086 v -1.1582 l 0.16602,-2.15039 -0.66211,-1.32226 -2.64648,-1.32422 -0.66211,-2.97852 -0.82618,-5.78906 v -5.12891 l -0.16601,-2.3164 v -2.976567 l -1.1582,-2.150391 -0.66211,-1.986328 v -3.142578 c 0,0 0.001,-2.978901 -0.16407,-3.640625 -0.16543,-0.661727 -0.33203,-2.480469 -0.33203,-2.480469 l -0.16406,-1.986328 -1.1582,-4.134765 -0.99219,-3.970703 -2.8125,-10.25586 -2.64844,-6.121094 -1.98437,-4.96289 -3.47461,-5.625 -3.3086,-5.955078 -2.8125,-4.466797 -4.13476,-2.978516 -6.61719,-5.458984 -5.625,-3.804688 -3.80469,-1.488281 -6.12109,-1.158203 -3.64062,-0.166016 -0.82618,-0.828125 -0.99218,-2.976562 -2.97852,-3.804688 -1.82031,-4.632812 -1.32227,-0.992188 -1.82031,-3.6406246 -1.48828,-3.3085938 -2.97852,-3.96874998 -1.65429,-1.15820312 -3.14258,-1.4902344 -2.8125,-0.6601562 z m 76.2793,160.7871138 -0.32617,5.66992 -0.10938,4.2539 -0.32812,3.59766 -0.32617,4.4707 c 0,0 -1.41864,5.8884 -1.63672,6.4336 -0.21808,0.54517 -2.17969,4.14257 -2.17969,4.14257 l -1.74414,2.61719 c 0,0 -3.05409,2.18036 -3.49024,2.39844 -0.43614,0.21807 -3.05273,0.43555 -3.05273,0.43555 l -2.28906,0.21875 -2.61719,0.21875 -2.18164,-0.10938 -2.07031,-0.87304 -1.96289,-0.98047 -6.80274,-3.36719 -3.14258,-7.44336 c 0,0 1.98472,-3.80051 2.09375,-4.3457 0.10904,-0.54519 0.21875,-2.18164 0.21875,-2.18164 l 1.9629,-0.98047 4.6875,-2.83594 c 0,0 11.77708,-5.23377 12.32226,-5.66992 0.54519,-0.43614 12.97461,-5.66992 12.97461,-5.66992 z m -79.160156,11.66796 8.394526,0.76368 12.53907,2.50781 5.01562,3.27148 2.18164,2.83399 0.0606,3.94726 -0.66211,3.14258 -0.37891,4.03125 -1.96289,2.07227 -4.03515,3.27148 -1.96289,1.96289 -2.50782,1.3086 c 0,0 -3.59772,1.08889 -4.25195,1.41601 -0.65422,0.32712 -3.49031,0.98276 -4.14453,1.0918 -0.65423,0.10904 -4.25203,0 -4.90625,0 -0.65422,0 -3.052734,-0.21875 -3.052734,-0.21875 l -11.011719,-1.96289 -5.125,-2.94336 -5.34375,-4.36133 -1.744141,-2.61719 c 0,0 -3.489288,-4.03489 -3.816406,-4.58008 -0.327111,-0.54518 -3.162109,-5.66992 -3.162109,-5.66992 0,0 -0.98114,-2.61631 -1.199219,-3.59765 -0.218075,-0.98134 1.308594,-1.63672 1.308594,-1.63672 l 2.833984,-1.52539 7.416016,-1.3086 9.8125,-0.65429 z"
         style="fill:#000000;fill-opacity:1;stroke:#fffffd;stroke-width:2.83464575;stroke-linecap:butt;stroke-linejoin:miter;stroke-miterlimit:4;stroke-dasharray:none;stroke-opacity:1" />
      <path
         inkscape:connector-curvature="0"
         id="path4498"
         d="m 37.642532,47.246174 0.350163,0.831639 0.481473,1.138028 0.04377,1.006721 -0.262623,1.269341 -0.350163,0.787866 -0.218853,0.919178 -0.04377,0.875409 c 0,0 0,0.525243 -0.218852,0.569015 -0.218853,0.04377 -1.138029,0.04377 -1.138029,0.04377 l -0.787868,-0.569015 -0.962949,-0.962949 -0.525245,-0.744095 -0.744096,-1.707047 -0.218853,-1.750814 0.175083,-0.831638 0.393933,-0.525246 0.700326,-0.393933 1.313111,-0.13131 0.875408,-0.131313 z"
         style="fill:#ffff00;fill-opacity:1;stroke:#ffff00;stroke-width:0.5;stroke-linecap:butt;stroke-linejoin:miter;stroke-miterlimit:4;stroke-dasharray:none;stroke-opacity:1" />
      <path
         inkscape:connector-curvature="0"
         id="path4500"
         d="m 38.474168,49.215841 v 0 l -1.575734,-0.437703 h -0.04377"
         style="fill:none;stroke:#000000;stroke-width:0.5;stroke-linecap:butt;stroke-linejoin:miter;stroke-miterlimit:4;stroke-dasharray:none;stroke-opacity:1" />
      <path
         inkscape:connector-curvature="0"
         id="path4502"
         d="m 36.854664,48.778138 -1.575734,0.13131 -0.481473,0.175083 -0.612785,0.437703"
         style="fill:none;stroke:#000000;stroke-width:0.5;stroke-linecap:butt;stroke-linejoin:miter;stroke-miterlimit:4;stroke-dasharray:none;stroke-opacity:1" />
      <path
         inkscape:connector-curvature="0"
         id="path4504"
         d="m 36.854664,48.778138 0.306393,1.663274"
         style="fill:none;stroke:#000000;stroke-width:0.5;stroke-linecap:butt;stroke-linejoin:miter;stroke-miterlimit:4;stroke-dasharray:none;stroke-opacity:1" />
      <path
         inkscape:connector-curvature="0"
         id="path4506"
         d="m 37.905152,52.279769 -0.641979,-0.881893 c 0,0 -0.432957,-0.115454 -0.548413,-0.02886 -0.115456,0.08659 -0.635002,0.259773 -0.635002,0.259773 l -0.28864,0.37523 -0.375229,0.432959 -0.288637,0.404093"
         style="fill:none;stroke:#000000;stroke-width:0.5;stroke-linecap:butt;stroke-linejoin:miter;stroke-miterlimit:4;stroke-dasharray:none;stroke-opacity:1" />
      <path
         inkscape:connector-curvature="0"
         id="path4508"
         d="m 35.877711,49.406275 -0.136961,-0.03979 -0.165698,0.08285 -0.03314,0.08285 v 0.165698 l 0.115988,0.09942 h 0.149127 l 0.132556,-0.06628 0.04971,-0.198837 -0.04971,-0.08285"
         style="fill:none;stroke:#000000;stroke-width:0.5;stroke-linecap:butt;stroke-linejoin:miter;stroke-miterlimit:4;stroke-dasharray:none;stroke-opacity:1" />
      <path
         inkscape:connector-curvature="0"
         id="path4510"
         d="m 37.414284,49.349911 -0.215405,-0.08285 c 0,0 -0.08285,-0.01656 -0.09942,0.04971 -0.01656,0.06628 -0.01656,0.231976 -0.01656,0.231976 l 0.09942,0.132556 0.115988,-0.03314 0.115988,-0.132556 z"
         style="fill:none;stroke:#000000;stroke-width:0.5;stroke-linecap:butt;stroke-linejoin:miter;stroke-miterlimit:4;stroke-dasharray:none;stroke-opacity:1" />
      <path
         inkscape:connector-curvature="0"
         id="path4512"
         d="M 35.989291,49.532185 35.74075,49.366484"
         style="fill:none;stroke:#000000;stroke-width:0.5;stroke-linecap:butt;stroke-linejoin:miter;stroke-miterlimit:4;stroke-dasharray:none;stroke-opacity:1" />
      <path
         sodipodi:nodetypes="cccccccccscscsscccccccccccc"
         inkscape:connector-curvature="0"
         id="path4518"
         transform="scale(0.26458333)"
         d="m 64.650391,169.2207 c -0.892687,-0.01 -1.791704,0.14395 -2.386719,0.58594 -1.097994,0.81562 -0.220703,3.76172 -0.220703,3.76172 l 0.435547,3.05273 c 0,0 1.200225,4.25237 1.527343,5.01563 0.327111,0.76326 2.94336,4.90625 2.94336,4.90625 l 3.816406,4.9082 3.271484,4.79688 3.816407,3.05273 c 0,0 4.468825,1.96289 5.123046,1.96289 0.654225,0 5.017051,1.19956 6.107422,1.3086 1.090375,0.10902 4.360729,0.76367 4.796875,0.76367 0.43615,0 6.324221,1.30859 6.324221,1.30859 0,0 5.56035,-0.11005 6.75976,-0.32812 1.19941,-0.21807 3.92518,-1.41703 4.36133,-1.74414 0.43615,-0.32711 4.90821,-2.07227 4.90821,-2.07227 l 4.0332,-2.72461 c 0,0 5.01697,-3.59833 5.45312,-3.81641 -0.53843,-0.6058 -2.3397,-5.473 -2.98632,-5.08984 -0.99783,0.59126 -2.10217,1.99357 -3.24415,3.09375 l -9.56595,6.4037 -12.227014,1.58849 -16.136719,-4.90625 -7.087891,-6.97852 -5.43164,-12.26172 c -0.788317,-1.94239 -1.319656,-3.89173 -1.414063,-5.76171 -0.01722,-0.34106 -1.488751,-0.81001 -2.976562,-0.82618 z"
         style="fill:#ffff00;fill-opacity:1;stroke:#ffff00;stroke-width:1.88976383;stroke-linecap:butt;stroke-linejoin:miter;stroke-miterlimit:4;stroke-dasharray:none;stroke-opacity:1" />
      <path
         sodipodi:nodetypes="ccccccccsccccscsscccsccscccc"
         inkscape:connector-curvature="0"
         id="path4520"
         transform="scale(0.26458333)"
         d="m 178.72266,156.30078 c -0.77172,-0.0226 -1.55764,0.32668 -1.96875,0.99805 -0.80195,3.00439 -0.68021,3.84763 -0.65821,9.50976 l -0.66615,6.1106 -1.35349,6.83006 -2.45106,5.70387 -6.31525,3.97426 c -1.73163,0.35518 -6.10529,0.53672 -6.10529,0.53672 0,0 -3.3614,-0.006 -4.70877,-0.64166 -2.89789,-1.36795 -6.12337,-1.87579 -9.08163,-3.31072 0.98329,0.22115 -0.91712,3.44392 0.16555,3.80584 l 4.7e-4,8e-4 2.60156,1.19531 c 0,0 3.38026,2.07227 3.81641,2.07227 0.43615,0 3.92578,0.65429 3.92578,0.65429 0,0 1.74462,0.54493 3.16211,0.54493 1.41748,0 3.27121,-0.32618 3.8164,-0.32618 0.54519,0 4.03321,-0.87304 4.03321,-0.87304 0,0 2.72731,-0.32626 3.59961,-0.98047 0.8723,-0.65423 2.28947,-2.07234 3.05273,-2.72656 0.76327,-0.65423 2.28846,-2.72698 2.72461,-3.49024 0.43615,-0.76326 1.19956,-2.94275 1.30859,-3.3789 0.10904,-0.43615 0.87305,-4.25391 0.87305,-4.25391 0,0 0.87305,-3.05281 0.87305,-3.70703 0,-0.65423 0.10742,-4.6875 0.10742,-4.6875 l 0.4375,-3.16211 0.10937,-3.16211 c 0,0 0.80517,-6.81553 -1.29882,-7.23633 z"
         style="fill:#ffff00;fill-opacity:1;stroke:#ffff00;stroke-width:1.88976383;stroke-linecap:butt;stroke-linejoin:miter;stroke-miterlimit:4;stroke-dasharray:none;stroke-opacity:1" />
      <path
         sodipodi:nodetypes="ccccccscccccccccssccccccccccccccscsccscccccccccccscc"
         inkscape:connector-curvature="0"
         id="path4528"
         d="M 16.415336,45.923252 15.203659,45.692455 14.713218,44.913524 13.184197,44.365386 12.664907,43.6153 12.261015,42.54787 c 0,0 -0.346193,-0.750086 -0.346193,-0.865484 v -1.009732 -0.952031 l 0.0577,-0.836634 0.51929,-0.894331 0.375042,-0.57699 0.432742,-0.634688 0.54814,-0.54814 0.923182,-0.46159 1.096279,-0.432741 c 0,0 0.836634,-0.0577 1.096279,-0.0577 0.259645,0 1.58672,-0.201946 1.961763,-0.201946 h 1.298225 l 0.317344,-1.702117 0.403892,-0.865484 0.403892,-0.51929 -2.682999,0.836634 -1.817515,0.288496 -0.894332,-0.259646 -1.557871,-0.778936 -0.432741,-0.663535 -0.461591,-0.750086 0.403892,-0.230796 0.634688,0.634688 0.403892,0.490439 1.067429,0.490443 c 0,0 0.576989,0.115398 1.06743,0.115398 0.49044,0 1.442472,-0.08655 1.673268,-0.115398 0.230795,-0.02885 0.952032,-0.259647 1.211677,-0.288497 0.259645,-0.02885 2.452203,-0.548137 2.452203,-0.548137 l 0.692386,-0.144248 c 0,0 0.778935,-0.201946 0.952032,-0.201946 0.173097,0 0.836634,0.0577 0.980881,0.115398 0.144248,0.0577 1.125129,0.490439 1.125129,0.490439 l 0.778934,0.721236 c 0,0 -0.02885,0.317344 0,0.490442 0.02885,0.173096 0.144248,1.52902 0.144248,1.52902 l -0.57699,0.721235 0.0577,2.596449 h -0.952033 l -0.0577,-1.961758 -1.846364,0.201945 -1.817515,0.144246 h -1.702118 c -0.548139,0 -1.673268,0.0577 -1.673268,0.0577 l -1.557872,0.375037"
         style="fill:none;stroke:#ffff00;stroke-width:0.5;stroke-linecap:butt;stroke-linejoin:miter;stroke-miterlimit:4;stroke-dasharray:none;stroke-opacity:1" />
      <path
         sodipodi:nodetypes="ccscscccsccccscccscc"
         inkscape:connector-curvature="0"
         id="path4530"
         d="m 21.002398,35.075862 h 2.452203 c 0,0 1.125128,-0.144248 1.240526,-0.144248 0.115398,0 0.403892,-0.0577 0.605838,-0.144245 0.201946,-0.08655 0.51929,-0.288494 0.51929,-0.490443 0,-0.201946 0.173097,-0.663535 0.173097,-0.663535 l -0.115398,-0.490442 -0.173096,-0.49044 c 0,0 -0.461591,-0.57699 -0.605839,-0.57699 -0.144247,0 -0.317344,-0.08655 -0.432741,0.144248 -0.115398,0.230796 -0.346194,0.432742 -0.461591,0.51929 -0.115398,0.08655 -0.778936,-0.08655 -0.778936,-0.08655 l -0.346193,-0.317344 c 0,0 -0.201946,-0.0577 -0.403892,0 -0.201946,0.0577 -0.663538,0.432742 -0.663538,0.432742 l -0.432741,0.692386 -0.403893,0.403894 c 0,0 -0.173096,0.403892 -0.173096,0.51929 0,0.115398 -0.02885,0.548137 -0.02885,0.548137 z"
         style="fill:none;stroke:#ffff00;stroke-width:0.5;stroke-linecap:butt;stroke-linejoin:miter;stroke-miterlimit:4;stroke-dasharray:none;stroke-opacity:1" />
      <path
         inkscape:connector-curvature="0"
         id="path4532"
         d="m 34.994379,45.721309 c 0,0 0.894334,-0.02885 1.009732,-0.02885 0.115398,0 0.836633,-0.115398 0.836633,-0.115398 L 36.667649,43.00946 36.350305,41.163097 36.177206,39.403279 36.090658,38.018505 35.97526,36.518336 c 0,0 -0.144245,-0.865484 -0.144245,-1.067429 0,-0.201946 0.0577,-1.153981 0.0577,-1.413624 0,-0.259646 0,-1.298226 0,-1.298226 l 0.230796,-1.125127 0.02885,-0.317344"
         style="fill:none;stroke:#ffff00;stroke-width:0.5;stroke-linecap:butt;stroke-linejoin:miter;stroke-miterlimit:4;stroke-dasharray:none;stroke-opacity:1" />
      <path
         sodipodi:nodetypes="csccscccc"
         inkscape:connector-curvature="0"
         id="path4534"
         d="m 33.176866,32.133219 c 0,0 0.605837,0.576988 0.605837,0.750086 0,0.173096 0.346194,1.03858 0.375042,1.298226 0.02885,0.259644 0.750086,2.481051 0.750086,2.481051 0,0 0.173098,1.413624 0.173098,1.615569 0,0.201946 0.201946,2.740697 0.201946,2.740697 l -0.02885,1.298226 -0.173096,1.61557 c 0.06067,0.612995 0.03282,1.191835 -0.08655,1.788665"
         style="fill:none;stroke:#ffff00;stroke-width:0.5;stroke-linecap:butt;stroke-linejoin:miter;stroke-miterlimit:4;stroke-dasharray:none;stroke-opacity:1" />
      <path
         inkscape:connector-curvature="0"
         id="path4540"
         d="m 46.187965,31.988971 c -0.144248,0 -0.923181,0.201946 -0.923181,0.201946 l -0.230796,-1.038579 -0.201946,-1.00973 1.06743,0.144246 0.173095,1.64442"
         style="fill:none;stroke:#ffff00;stroke-width:0.5;stroke-linecap:butt;stroke-linejoin:miter;stroke-miterlimit:4;stroke-dasharray:none;stroke-opacity:1" />
      <path
         inkscape:connector-curvature="0"
         id="path4542"
         d="M 44.601246,32.248617 44.42815,31.09464 44.37045,30.57535 c 0,0 -0.346194,-0.259646 -0.54814,-0.259646 -0.201946,0 -0.403892,0.173096 -0.432742,0.288494 -0.02885,0.115398 -0.173096,0.173098 -0.173096,0.173098 l -0.08655,-0.461592 c 0,0 -0.08655,-0.259646 -0.201945,-0.259646 -0.115398,0 -0.173099,0.0577 -0.288497,0.115398 -0.115395,0.0577 -0.230793,0.403894 -0.230793,0.403894 0,0 -0.173099,0.115396 -0.173099,0.317344 0,0.201946 0.115398,0.432739 0.259647,0.51929 0.144245,0.08655 0.403891,0.317344 0.490439,0.432742 0.08655,0.115395 0.230796,0.461589 0.230796,0.461589 l 0.173096,0.173099 z"
         style="fill:none;stroke:#ffff00;stroke-width:0.5;stroke-linecap:butt;stroke-linejoin:miter;stroke-miterlimit:4;stroke-dasharray:none;stroke-opacity:1" />
      <path
         inkscape:connector-curvature="0"
         id="path4546"
         transform="scale(0.26458333)"
         d="m 98.244141,141.63672 -10.695313,1.55273 -4.296875,1.48438 -4.658203,1.71094 -5.511719,1.1289 -4.277343,4.85156 -5.140626,2.91602 -5.982421,3.34961 -4.861329,0.87891 3.753907,10.24218 h 5.140625 l 6.105468,-0.54492 5.888672,-0.98242 8.941407,-0.98047 5.779297,-0.6543 6.65039,0.21875 h 6.107422 c 0,0 12.97402,2.07065 13.41016,2.17969 0.43615,0.10904 5.99684,0.98242 6.86914,0.98242 0.8723,0 5.34375,1.85352 5.34375,1.85352 0,0 1.41789,-2.94452 0.76367,-4.58008 -0.65422,-1.63556 -2.18164,-7.41406 -2.18164,-7.41406 l -0.70313,-3.78906 -0.002,-0.0137 -0.60352,-4.48437 -8.68554,-4.24609 -9.65821,-3.97461 z"
         style="fill:#fffe00;fill-opacity:1;stroke:#ffff00;stroke-width:1.88976383;stroke-linecap:butt;stroke-linejoin:miter;stroke-miterlimit:4;stroke-dasharray:none;stroke-opacity:1" />
      <path
         sodipodi:nodetypes="ccccccssccccsccscccccccccccc"
         inkscape:connector-curvature="0"
         d="m 38.08127,44.68273 -0.923182,-3.808127 -0.02886,-1.788672 1.384785,-0.778929 0.923184,-0.692389 1.327073,-0.778933 c 0,0 0.317344,-0.346194 0.663538,-0.461592 0.346194,-0.115398 0.692385,-0.144248 0.923181,-0.259646 0.230796,-0.115398 1.12513,-0.144246 1.12513,-0.144246 H 44.3416 l 0.60584,0.08655 0.663535,0.288494 c 0,0 0.923184,0.490442 0.923184,0.605838 0,0.115398 1.29823,1.096277 1.29823,1.096277 M 38.08127,44.68273 c 0,0 1.009732,-0.317344 1.12513,-0.432742 0.115398,-0.115398 0.894331,-0.403892 0.894331,-0.403892 l 0.778936,-0.461592 1.09628,-0.403892 1.442471,-0.721238 1.06743,-0.375042 1.471321,-0.432742 1.961764,-0.692385 0.461589,-0.259646 v 0 c 0,0 -0.01466,-0.646676 -0.03808,-0.810628 -0.02341,-0.163952 -0.281059,-1.10082 -0.281059,-1.10082 l -0.228994,-0.540756"
         style="fill:#ffff00;fill-opacity:1;stroke:#ffff00;stroke-width:0.5;stroke-linecap:butt;stroke-linejoin:miter;stroke-miterlimit:4;stroke-dasharray:none;stroke-opacity:1"
         id="path4562" />
      <path
         sodipodi:nodetypes="cc"
         inkscape:connector-curvature="0"
         id="path4548"
         d="m 38.685612,44.306608 -0.1716,-5.999606"
         style="fill:none;stroke:#ff2800;stroke-width:0.5;stroke-linecap:butt;stroke-linejoin:miter;stroke-miterlimit:4;stroke-dasharray:none;stroke-opacity:1" />
      <path
         inkscape:connector-curvature="0"
         id="path4552"
         d="m 40.100731,43.846096 0.372009,-1.932101 c 0,0 0.09369,-1.662944 0.09369,-1.780051 0,-0.11711 0.07026,-1.475568 0.07026,-1.475568 l -0.163952,-1.33504"
         style="fill:none;stroke:#ff2800;stroke-width:0.5;stroke-linecap:butt;stroke-linejoin:miter;stroke-miterlimit:4;stroke-dasharray:none;stroke-opacity:1" />
      <path
         sodipodi:nodetypes="ccccc"
         inkscape:connector-curvature="0"
         id="path4554"
         d="m 41.975947,42.980612 0.183158,-2.190861 0.210796,-2.131375 -0.140531,-1.639522 c -0.0075,-0.359168 0.07888,1.028807 -0.0039,-0.609151"
         style="fill:none;stroke:#ff2800;stroke-width:0.5;stroke-linecap:butt;stroke-linejoin:miter;stroke-miterlimit:4;stroke-dasharray:none;stroke-opacity:1" />
      <path
         inkscape:connector-curvature="0"
         id="path4556"
         d="m 43.822045,41.843729 c 0,0 0.09369,-1.428723 0.140531,-1.522412 0.04685,-0.09369 0.02342,-1.194507 0.02342,-1.381882 0,-0.187373 -0.07027,-1.077399 -0.07027,-1.077399 l -0.163951,-1.335037 -0.04685,-0.421593"
         style="fill:none;stroke:#ff2800;stroke-width:0.5;stroke-linecap:butt;stroke-linejoin:miter;stroke-miterlimit:4;stroke-dasharray:none;stroke-opacity:1" />
      <path
         sodipodi:nodetypes="ccccc"
         inkscape:connector-curvature="0"
         id="path4558"
         d="m 45.578675,41.328453 c 0.04684,-0.11711 0.11711,-1.428726 0.11711,-1.428726 l -0.11711,-1.264774 -0.07027,-0.819759 -0.560965,-1.758448"
         style="fill:none;stroke:#ff2800;stroke-width:0.5;stroke-linecap:butt;stroke-linejoin:miter;stroke-miterlimit:4;stroke-dasharray:none;stroke-opacity:1" />
      <path
         inkscape:connector-curvature="0"
         id="path4560"
         d="m 47.265039,40.813175 c 0,0 -0.04684,-1.0774 -0.117107,-1.264775 -0.07027,-0.187373 -0.515279,-1.967423 -0.515279,-1.967423 l 0.02342,-0.210796"
         style="fill:none;stroke:#ff2800;stroke-width:0.5;stroke-linecap:butt;stroke-linejoin:miter;stroke-miterlimit:4;stroke-dasharray:none;stroke-opacity:1" />
      <path
         inkscape:connector-curvature="0"
         id="path4564"
         d="m 32.626461,45.052506 c -0.07026,-0.163952 -2.412436,-5.85543 -2.412436,-5.85543"
         style="fill:none;stroke:#ff2800;stroke-width:0.5;stroke-linecap:butt;stroke-linejoin:miter;stroke-miterlimit:4;stroke-dasharray:none;stroke-opacity:1" />
      <path
         inkscape:connector-curvature="0"
         id="path4566"
         d="M 30.495086,44.490385 27.42684,37.862036"
         style="fill:none;stroke:#ff2800;stroke-width:0.5;stroke-linecap:butt;stroke-linejoin:miter;stroke-miterlimit:4;stroke-dasharray:none;stroke-opacity:1" />
      <path
         inkscape:connector-curvature="0"
         id="path4568"
         d="M 28.340288,44.162479 25.13151,37.698084"
         style="fill:none;stroke:#ff2800;stroke-width:0.5;stroke-linecap:butt;stroke-linejoin:miter;stroke-miterlimit:4;stroke-dasharray:none;stroke-opacity:1" />
      <path
         inkscape:connector-curvature="0"
         id="path4570"
         d="M 25.787319,43.998528 23.164086,37.885459"
         style="fill:none;stroke:#ff2800;stroke-width:0.5;stroke-linecap:butt;stroke-linejoin:miter;stroke-miterlimit:4;stroke-dasharray:none;stroke-opacity:1" />
      <path
         inkscape:connector-curvature="0"
         id="path4572"
         d="M 23.396902,44.076889 20.569656,38.393547"
         style="fill:none;stroke:#ff2800;stroke-width:0.5;stroke-linecap:butt;stroke-linejoin:miter;stroke-miterlimit:4;stroke-dasharray:none;stroke-opacity:1" />
      <path
         inkscape:connector-curvature="0"
         id="path4574"
         d="M 21.290347,44.232745 19.242581,39.085932"
         style="fill:none;stroke:#ff2800;stroke-width:0.5;stroke-linecap:butt;stroke-linejoin:miter;stroke-miterlimit:4;stroke-dasharray:none;stroke-opacity:1" />
      <path
         inkscape:connector-curvature="0"
         id="path4576"
         d="m 19.346344,44.326434 c -0.187373,-0.210796 -1.63952,-3.724056 -1.63952,-3.724056"
         style="fill:none;stroke:#ff2800;stroke-width:0.5;stroke-linecap:butt;stroke-linejoin:miter;stroke-miterlimit:4;stroke-dasharray:none;stroke-opacity:1" />
      <path
         inkscape:connector-curvature="0"
         id="path4578"
         d="m 17.944356,44.769277 -1.713101,-3.11292"
         style="fill:none;stroke:#ff2800;stroke-width:0.5;stroke-linecap:butt;stroke-linejoin:miter;stroke-miterlimit:4;stroke-dasharray:none;stroke-opacity:1" />
      <path
         inkscape:connector-curvature="0"
         id="path4580"
         d="M 15.856508,44.794868 14.453573,42.115126"
         style="fill:none;stroke:#ff2800;stroke-width:0.5;stroke-linecap:butt;stroke-linejoin:miter;stroke-miterlimit:4;stroke-dasharray:none;stroke-opacity:1" />
      <path
         inkscape:connector-curvature="0"
         id="path4582"
         d="m 14.188937,36.51628 -0.165565,0.132451 0.08278,0.03312 h 0.182122 l 0.03311,-0.182123 z"
         style="fill:none;stroke:#ffff00;stroke-width:0.5;stroke-linecap:butt;stroke-linejoin:miter;stroke-miterlimit:4;stroke-dasharray:none;stroke-opacity:1" />
      <path
         inkscape:connector-curvature="0"
         id="path4584"
         d="m 23.92417,31.350645 -0.248347,0.01656 c 0,0 -0.01656,0.132451 0,0.198679 0.01656,0.06622 0.03311,0.149008 0.132452,0.18212 0.09934,0.03311 0.231791,-0.06623 0.231791,-0.06623 l 0.06623,-0.132453 -0.04967,-0.132453"
         style="fill:none;stroke:#ffff00;stroke-width:0.5;stroke-linecap:butt;stroke-linejoin:miter;stroke-miterlimit:4;stroke-dasharray:none;stroke-opacity:1" />
      <path
         inkscape:connector-curvature="0"
         id="path4586"
         d="M 24.056626,31.416868 23.92417,31.350645"
         style="fill:none;stroke:#ffff00;stroke-width:0.5;stroke-linecap:butt;stroke-linejoin:miter;stroke-miterlimit:4;stroke-dasharray:none;stroke-opacity:1" />
      <path
         inkscape:connector-curvature="0"
         id="path4588"
         d="m 32.830672,40.095667 0.201914,-1.938316 -0.08739,-1.791452 -0.262165,-1.922531 -0.13108,-0.78649 c 0,0 -0.174775,-0.742796 -0.174775,-0.917572 0,-0.174773 -0.08739,-1.310815 -0.08739,-1.310815 l -0.436938,-0.917572 c 0,0 -0.174776,-0.961266 -0.262162,-1.136042 -0.08739,-0.174775 -0.262165,-1.22343 -0.262165,-1.22343 0,0 -0.174776,-0.699101 -0.174776,-0.961266 0,-0.262162 -0.08739,-0.830183 0,-1.048652 0.08739,-0.21847 0.524327,-0.873878 0.524327,-0.873878 0,0 0.830183,-0.349551 1.004959,-0.393245 0.174776,-0.04369 0.305859,-0.305858 1.004962,-0.262164 0.6991,0.04369 1.398204,0.04369 1.398204,0.04369 0,0 0.742796,0.04369 0.873876,0.305857 0.131083,0.262164 0.699103,1.267123 0.699103,1.441899 0,0.174775 0.04369,1.35451 0.04369,1.35451 l -0.262163,1.092348 -0.08739,1.4419 -0.204963,1.004136 0.598207,3.146782 0.262163,2.534248 0.120507,2.108319"
         style="fill:none;stroke:#ffff00;stroke-width:0.5;stroke-linecap:butt;stroke-linejoin:miter;stroke-miterlimit:4;stroke-dasharray:none;stroke-opacity:1" />
      <path
         inkscape:connector-curvature="0"
         id="path4590"
         d="m 31.852848,30.510919 -5.496032,-0.391692 -3.139774,-0.201636 -2.79411,0.08641 -3.514242,-0.11522 -2.506058,0.05761 -2.477253,0.05761 -1.987563,0.05761 c 0,0 -1.325042,-0.05761 -1.5266789,-0.02881 -0.2016368,0.02881 -1.8723422,0.144026 -1.8723422,0.144026 l -1.6130947,-0.08641 -0.4608843,0.0288"
         style="fill:none;stroke:#ffff00;stroke-width:0.5;stroke-linecap:butt;stroke-linejoin:miter;stroke-miterlimit:4;stroke-dasharray:none;stroke-opacity:1" />
      <path
         inkscape:connector-curvature="0"
         id="path4592"
         d="m 31.31132,28.851796 -2.073978,-0.172831 c 0,0 -4.522426,-0.08642 -4.637647,-0.115221 -0.115221,-0.0288 -3.744684,-0.05761 -3.744684,-0.05761 l -3.139774,-0.05761 h -2.304421 -1.958758 l -2.362031,0.115223 -1.4690688,0.05761 -1.0369897,0.0288 H 6.7980422 l -1.2962369,0.144026 -1.2123079,0.06843"
         style="fill:none;stroke:#ffff00;stroke-width:0.5;stroke-linecap:butt;stroke-linejoin:miter;stroke-miterlimit:4;stroke-dasharray:none;stroke-opacity:1" />
      <path
         inkscape:connector-curvature="0"
         id="path4594"
         d="m 15.151569,28.3333 -0.08642,-1.958757 0.201637,-2.7365 0.345663,-1.987563 0.345663,-2.362032 0.662521,-2.79411 0.144027,-0.864158"
         style="fill:none;stroke:#ffff00;stroke-width:0.5;stroke-linecap:butt;stroke-linejoin:miter;stroke-miterlimit:4;stroke-dasharray:none;stroke-opacity:1" />
      <path
         sodipodi:nodetypes="ccccccc"
         inkscape:connector-curvature="0"
         id="path4596"
         d="m 15.554842,15.658985 -0.5473,1.901147 -0.403273,2.563669 -0.403274,2.621279 -0.172832,2.131589 -0.288052,1.872343 0.02881,1.6419"
         style="fill:none;stroke:#ffff00;stroke-width:0.5;stroke-linecap:butt;stroke-linejoin:miter;stroke-miterlimit:4;stroke-dasharray:none;stroke-opacity:1" />
      <path
         inkscape:connector-curvature="0"
         id="path4598"
         d="m 9.707374,28.506134 c 0.05761,-0.288055 0.432079,-3.600659 0.432079,-3.600659 0,0 0.432079,-3.658269 0.432079,-3.77349 0,-0.115221 0.662521,-2.909331 0.662521,-2.909331 l 0.374468,-2.07398 0.691327,-1.497873 0.979379,-1.872342 1.440263,-2.13159 0.979379,-1.0946001 2.073979,-2.0451736 0.835352,-0.6913263 -1.238626,0.2880526 -0.748937,0.7489368 -1.6419,1.5842895 -1.036989,1.2098211 -0.979379,1.440263 -1.03699,1.699511 -0.835352,1.584289 -0.604911,1.929953 -0.5473,2.218005 -0.3456633,2.822916 -0.4032737,2.390837 -0.4896895,3.715878"
         style="fill:none;stroke:#ffff00;stroke-width:0.5;stroke-linecap:butt;stroke-linejoin:miter;stroke-miterlimit:4;stroke-dasharray:none;stroke-opacity:1" />
      <path
         inkscape:connector-curvature="0"
         id="path4600"
         d="m 8.6703843,30.090422 0.1728317,2.477254 0.115221,2.189199 0.3456633,3.2838 0.3456631,2.218004 v 2.073979 l 0.9217686,0.144029 -0.115221,-1.325044 c 0,0 -0.201637,-2.995748 -0.201637,-3.110968 0,-0.115221 -0.144026,-1.757122 -0.115221,-2.131589 0.02881,-0.374468 -0.2880528,-2.592475 -0.2880528,-2.592475 l 0.028805,-1.901148 0.05761,-1.353852"
         style="fill:none;stroke:#ffff00;stroke-width:0.5;stroke-linecap:butt;stroke-linejoin:miter;stroke-miterlimit:4;stroke-dasharray:none;stroke-opacity:1" />
      <path
         inkscape:connector-curvature="0"
         id="path4602"
         d="M 12.261015,42.54787 C 11.43569,42.620713 9.6497634,42.332658 9.6497634,42.332658 L 8.2095003,42.044606 7.2013158,41.583723 5.9914948,40.719565"
         style="fill:none;stroke:#ffff00;stroke-width:0.5;stroke-linecap:butt;stroke-linejoin:miter;stroke-miterlimit:4;stroke-dasharray:none;stroke-opacity:1" />
      <path
         inkscape:connector-curvature="0"
         id="path4604"
         d="m 11.993086,45.101425 2.150298,0.54384 1.060275,0.04719"
         style="fill:none;stroke:#ffff00;stroke-width:0.5;stroke-linecap:butt;stroke-linejoin:miter;stroke-miterlimit:4;stroke-dasharray:none;stroke-opacity:1" />
      <path
         inkscape:connector-curvature="0"
         id="path4606"
         d="M 6.8719506,16.125431 9.1312687,15.658985 11.090027,15.370932"
         style="fill:none;stroke:#ffff00;stroke-width:0.5;stroke-linecap:butt;stroke-linejoin:miter;stroke-miterlimit:4;stroke-dasharray:none;stroke-opacity:1" />
      <path
         inkscape:connector-curvature="0"
         id="path4608"
         d="m 10.773169,16.17748 c 0,0 -1.065795,0.201637 -1.2098215,0.259247 -0.1440262,0.05761 -1.9011473,0.5473 -1.9011473,0.5473 l -1.1841835,0.542056"
         style="fill:none;stroke:#ffff00;stroke-width:0.5;stroke-linecap:butt;stroke-linejoin:miter;stroke-miterlimit:4;stroke-dasharray:none;stroke-opacity:1" />
      <path
         inkscape:connector-curvature="0"
         id="path4610"
         d="m 11.608521,16.148674 c 0,0 1.555484,-0.374468 1.728316,-0.403273 0.172832,-0.02881 2.218005,-0.08642 2.218005,-0.08642 l 1.843537,-0.230442 2.966943,0.172831 2.016368,-0.02881 2.1892,0.288053 1.987564,-0.02881 2.30442,0.08642"
         style="fill:none;stroke:#ffff00;stroke-width:0.5;stroke-linecap:butt;stroke-linejoin:miter;stroke-miterlimit:4;stroke-dasharray:none;stroke-opacity:1" />
      <path
         inkscape:connector-curvature="0"
         id="path4612"
         d="m 28.459602,14.564385 c 0,0 -1.152213,-0.05761 -1.41146,0 -0.259247,0.05761 -2.131589,0.115221 -2.131589,0.115221 l -2.794111,-0.345663 -2.218005,-0.115221 c 0,0 -1.69951,0.144026 -1.843537,0.144026 -0.144026,0 -1.728316,-0.08642 -1.728316,-0.08642 l -1.929952,0.144026 -2.045174,0.316859"
         style="fill:none;stroke:#ffff00;stroke-width:0.5;stroke-linecap:butt;stroke-linejoin:miter;stroke-miterlimit:4;stroke-dasharray:none;stroke-opacity:1" />
      <path
         sodipodi:nodetypes="ccccccc"
         inkscape:connector-curvature="0"
         id="path4614"
         d="m 13.380098,14.722896 -0.273703,0.158347 -0.05761,0.316858 0.288053,0.288052 0.374469,-0.08642 0.05761,-0.460884 c -0.05154,-0.152642 -0.260955,-0.292291 -0.388819,-0.215953 z"
         style="fill:none;stroke:#ffff00;stroke-width:0.5;stroke-linecap:butt;stroke-linejoin:miter;stroke-miterlimit:4;stroke-dasharray:none;stroke-opacity:1" />
      <path
         sodipodi:nodetypes="cccccscccc"
         inkscape:connector-curvature="0"
         id="path4616"
         d="m 24.916553,14.679606 v 0 l -0.390664,0.444201 0.07379,0.362531 0.259114,0.143952 c 0,0 0.17298,0.0863 0.288201,0.0863 0.115221,0 0.374469,-0.230442 0.374469,-0.230442 l -0.07198,-0.41746 -0.53294,-0.389087 v 0"
         style="fill:none;stroke:#ffff00;stroke-width:0.5;stroke-linecap:butt;stroke-linejoin:miter;stroke-miterlimit:4;stroke-dasharray:none;stroke-opacity:1" />
      <path
         inkscape:connector-curvature="0"
         id="path4618"
         d="M 31.678073,25.267651 30.961168,23.394392 30.066104,19.610702 29.293089,16.966186 28.862874,15.918223 28.459602,14.564385 27.909805,12.897702 27.218163,11.555101 26.567206,10.171817 25.916248,8.9105863 24.817757,7.5679865 24.451594,7.0797681 23.597212,6.1033318 c 0,0 -0.109543,-0.318561 -0.976436,-0.4882182 C 21.753882,5.4454565 21.753882,5.4454565 21.753882,5.4454565"
         style="fill:none;stroke:#ffff00;stroke-width:0.5;stroke-linecap:butt;stroke-linejoin:miter;stroke-miterlimit:4;stroke-dasharray:none;stroke-opacity:1" />
      <path
         inkscape:connector-curvature="0"
         id="path4620"
         d="M 24.451594,7.0797681 22.66146,6.835659 c 0,0 -1.017121,-0.040685 -1.505339,-0.040685 -0.488218,0 -0.381388,0.060575 -1.464655,0.040685 C 18.6082,6.8157703 18.6082,6.8157703 18.6082,6.8157703 L 17.369574,7.103823 16.273939,7.4866182 14.225375,7.8090587"
         style="fill:none;stroke:#ffff00;stroke-width:0.5;stroke-linecap:butt;stroke-linejoin:miter;stroke-miterlimit:4;stroke-dasharray:none;stroke-opacity:1" />
      <path
         inkscape:connector-curvature="0"
         id="path4622"
         d="m 31.612128,23.96398 1.301914,-0.447533 0.813697,-0.244109"
         style="fill:none;stroke:#ffff00;stroke-width:0.5;stroke-linecap:butt;stroke-linejoin:miter;stroke-miterlimit:4;stroke-dasharray:none;stroke-opacity:1" />
      <path
         inkscape:connector-curvature="0"
         id="path4624"
         d="m 34.866916,23.435077 c 0.244107,0.04068 0.773012,0.244109 0.773012,0.244109"
         style="fill:none;stroke:#ffff00;stroke-width:0.5;stroke-linecap:butt;stroke-linejoin:miter;stroke-miterlimit:4;stroke-dasharray:none;stroke-opacity:1" />
      <path
         inkscape:connector-curvature="0"
         id="path4626"
         d="m 34.500751,24.492883 0.366165,-1.057806 c 0,0 -0.122055,-1.546024 -0.16274,-1.993557 -0.04068,-0.447534 -0.24411,-2.319037 -0.24411,-2.319037 L 34.378696,17.047556 33.971849,15.094683 33.727739,13.548659 33.117467,11.351677 32.832672,9.2360651 32.2224,7.5679865 31.89692,5.8999077 30.106789,1.790738"
         style="fill:none;stroke:#ffff00;stroke-width:0.5;stroke-linecap:butt;stroke-linejoin:miter;stroke-miterlimit:4;stroke-dasharray:none;stroke-opacity:1" />
      <path
         inkscape:connector-curvature="0"
         id="path4628"
         d="m 34.500751,24.492883 -0.773012,-1.220545 -0.04068,-1.3426 -0.325477,-2.278352 -0.24411,-2.319036 c 0,0 -0.24411,-1.627394 -0.284795,-1.912188 -0.04069,-0.284794 -0.488217,-2.847939 -0.488217,-2.847939 0,0 -0.650957,-1.708764 -0.691642,-1.871503 -0.04068,-0.16274 -0.732327,-3.0106791 -0.732327,-3.0106791 L 30.350896,5.818538 29.455829,4.0284045 28.479392,2.4010107 27.421588,1.3025198 26.607891,0.93635615 c 0,0 -0.691643,-0.16273939 -0.895067,-0.12205454 C 25.5094,0.85498645 24.980497,1.0584107 24.777073,1.1804652 24.573648,1.3025198 24.1668,1.4245743 23.963376,1.5873137 23.759951,1.7500531 23.231048,2.2789561 23.231048,2.2789561 l -0.935751,1.7087637 -0.541415,1.4577367 v 0"
         style="fill:none;stroke:#ffff00;stroke-width:0.5;stroke-linecap:butt;stroke-linejoin:miter;stroke-miterlimit:4;stroke-dasharray:none;stroke-opacity:1" />
      <path
         inkscape:connector-curvature="0"
         id="path4630"
         d="m 35.802667,24.736992 -0.162739,-1.057806 -0.24411,-1.627394 -0.16274,-1.871503 c 0,0 -0.04068,-1.423969 -0.122055,-1.790133 -0.08137,-0.366164 -0.325477,-2.807255 -0.325477,-2.807255 L 34.663491,13.263865 34.419381,11.433047 34.012534,9.3988045 33.605684,7.8934653 33.00287,6.2770937"
         style="fill:none;stroke:#ffff00;stroke-width:0.5;stroke-linecap:butt;stroke-linejoin:miter;stroke-miterlimit:4;stroke-dasharray:none;stroke-opacity:1" />
      <path
         inkscape:connector-curvature="0"
         id="path4632"
         d="m 35.029655,15.949065 c 0,0 0.488218,-0.569588 0.773012,-0.569588 0.284793,0 1.301914,-0.244109 1.301914,-0.244109 l 1.098492,-0.284794 c 0,0 0.650957,-0.203424 0.895067,-0.203424 0.244107,0 1.668079,-0.122055 1.668079,-0.122055 0,0 0.813697,-0.122054 1.139174,-0.08137 0.32548,0.04068 1.558602,0.0622 1.558602,0.0622 v 0"
         style="fill:none;stroke:#ffff00;stroke-width:0.5;stroke-linecap:butt;stroke-linejoin:miter;stroke-miterlimit:4;stroke-dasharray:none;stroke-opacity:1" />
      <path
         inkscape:connector-curvature="0"
         id="path4634"
         d="m 42.474983,13.30455 c 0,0 -1.139177,-0.122055 -1.423972,-0.08137 -0.284792,0.04068 -1.342599,0.08137 -1.586709,0.16274 -0.24411,0.08137 -1.098491,0.203424 -1.301914,0.203424 -0.203425,0 -1.098492,0.122054 -1.383286,0.203424 -0.284793,0.08137 -0.854382,0.244109 -0.854382,0.244109 l -0.895065,0.366164"
         style="fill:none;stroke:#ffff00;stroke-width:0.5;stroke-linecap:butt;stroke-linejoin:miter;stroke-miterlimit:4;stroke-dasharray:none;stroke-opacity:1" />
      <path
         inkscape:connector-curvature="0"
         id="path4636"
         d="m 41.701968,14.56578 0.610275,1.301915 0.732327,1.871503 0.650957,2.237667 0.976437,3.661637 0.488217,2.196981"
         style="fill:none;stroke:#ffff00;stroke-width:0.5;stroke-linecap:butt;stroke-linejoin:miter;stroke-miterlimit:4;stroke-dasharray:none;stroke-opacity:1" />
      <path
         sodipodi:nodetypes="cscc"
         inkscape:connector-curvature="0"
         id="path4638"
         d="m 45.160181,25.835483 c 0.200132,-0.344029 0.308698,0.252258 0.32682,-0.353928 0.04469,-1.494772 -0.776495,-4.986313 -1.498996,-7.004091 l -1.481147,-3.939627"
         style="fill:none;stroke:#ffff00;stroke-width:0.5;stroke-linecap:butt;stroke-linejoin:miter;stroke-miterlimit:4;stroke-dasharray:none;stroke-opacity:1" />
      <path
         inkscape:connector-curvature="0"
         id="path4640"
         d="m 46.352838,25.798686 c -0.17508,-0.525244 -1.192657,0.0368 -1.192657,0.0368 l -2.278351,0.569588 -2.563146,0.488218 -3.615819,0.864908"
         style="fill:none;stroke:#ffff00;stroke-width:0.5;stroke-linecap:butt;stroke-linejoin:miter;stroke-miterlimit:4;stroke-dasharray:none;stroke-opacity:1" />
      <path
         inkscape:connector-curvature="0"
         id="path4642"
         d="m 36.353313,30.292444 c 0.873323,-0.429162 2.460032,-1.242859 2.622772,-1.283544 0.16274,-0.04068 1.057804,-0.488217 1.586709,-0.488217 0.528902,0 1.627394,-0.528902 1.871504,-0.528902 0.244107,0 1.830816,-0.16274 1.830816,-0.16274 l 1.692053,-0.282879 v 0"
         style="fill:none;stroke:#ffff00;stroke-width:0.5;stroke-linecap:butt;stroke-linejoin:miter;stroke-miterlimit:4;stroke-dasharray:none;stroke-opacity:1" />
      <path
         inkscape:connector-curvature="0"
         id="path4644"
         d="m 40.954438,13.353589 -0.161134,0.322264 0.214845,0.187988 0.375975,0.107421 0.134276,-0.241698 -0.02685,-0.295409 -0.161131,-0.161132"
         style="fill:none;stroke:#ffff00;stroke-width:0.5;stroke-linecap:butt;stroke-linejoin:miter;stroke-miterlimit:4;stroke-dasharray:none;stroke-opacity:1" />
      <path
         inkscape:connector-curvature="0"
         id="path4646"
         d="m 46.003246,26.217311 -0.02685,0.29541 v 0.161131 l 0.134276,0.187986"
         style="fill:none;stroke:#ffff00;stroke-width:0.5;stroke-linecap:butt;stroke-linejoin:miter;stroke-miterlimit:4;stroke-dasharray:none;stroke-opacity:1" />
      <path
         inkscape:connector-curvature="0"
         id="path4648"
         d="m 46.110673,26.861838 0.548558,-0.494137 v 0"
         style="fill:none;stroke:#ffff00;stroke-width:0.5;stroke-linecap:butt;stroke-linejoin:miter;stroke-miterlimit:4;stroke-dasharray:none;stroke-opacity:1" />
      <path
         inkscape:connector-curvature="0"
         id="path4652"
         d="m 46.659231,26.367701 -0.655985,-0.15039 v 0"
         style="fill:none;stroke:#ffff00;stroke-width:0.5;stroke-linecap:butt;stroke-linejoin:miter;stroke-miterlimit:4;stroke-dasharray:none;stroke-opacity:1" />
      <path
         inkscape:connector-curvature="0"
         id="path4654"
         d="m 21.622672,28.70849 0.250552,0.275608 0.02506,0.375828 -0.300663,0.275608 -0.375828,0.02506 -0.250553,-0.150331 -0.125276,-0.275608 v -0.225497 l 0.175387,-0.275608 0.501105,-0.02506"
         style="fill:none;stroke:#ffff00;stroke-width:0.5;stroke-linecap:butt;stroke-linejoin:miter;stroke-miterlimit:4;stroke-dasharray:none;stroke-opacity:1" />
      <path
         inkscape:connector-curvature="0"
         id="path4656"
         d="m 36.430317,26.679017 -0.05011,-0.275608 -0.400884,-0.200442 c 0,0 -0.175387,-0.07517 -0.275608,-0.07517 -0.100222,0 -0.225497,0.05011 -0.300662,0.150331 -0.07516,0.100221 -0.100222,0.150332 -0.07516,0.375829 0.02506,0.225496 0.02506,0.400883 0.07516,0.501105 0.05011,0.100221 0.20044,0.37583 0.20044,0.37583 l 0.300665,0.150331 c 0,0 -0.347713,-0.127085 0.225496,-0.02506 0.57321,0.102028 0.300662,-0.977154 0.300662,-0.977154 z"
         style="fill:none;stroke:#ffff00;stroke-width:0.5;stroke-linecap:butt;stroke-linejoin:miter;stroke-miterlimit:4;stroke-dasharray:none;stroke-opacity:1" />
      <path
         inkscape:connector-curvature="0"
         id="path4658"
         d="m 34.075126,27.480784 -0.425939,0.37583 -0.551215,0.02506 -0.450995,-0.275606 c 0,0 -0.07517,-0.07517 -0.100222,-0.250553 -0.02506,-0.175387 -0.100219,-0.350774 -0.05011,-0.450995 0.05011,-0.100222 0.07516,-0.250553 0.125275,-0.375828 0.05011,-0.125277 0.175387,-0.175387 0.300664,-0.225498 0.125275,-0.05011 0.225497,-0.175386 0.476049,-0.125276 0.250553,0.05011 0.37583,0.02506 0.526161,0.150332 0.150331,0.125276 0.300662,0.450995 0.300662,0.450995 0,0 0.02506,0.20044 0.02506,0.325718 0,0.125275 -0.175387,0.375827 -0.175387,0.375827 z"
         style="fill:none;stroke:#ffff00;stroke-width:0.5;stroke-linecap:butt;stroke-linejoin:miter;stroke-miterlimit:4;stroke-dasharray:none;stroke-opacity:1" />
      <path
         inkscape:connector-curvature="0"
         id="path4660"
         d="m 33.373578,26.804292 h -0.225496 l -0.175387,0.150333 0.07516,0.250553 c 0,0 0.05011,0.100219 0.200443,0.100219 0.150331,0 0.250553,-0.07517 0.250553,-0.07517 l 0.100221,-0.175387 -0.05011,-0.20044 -0.150327,-0.150328"
         style="fill:none;stroke:#ffff00;stroke-width:0.5;stroke-linecap:butt;stroke-linejoin:miter;stroke-miterlimit:4;stroke-dasharray:none;stroke-opacity:1" />
      <path
         inkscape:connector-curvature="0"
         id="path4664"
         d="m 35.879103,26.704073 -0.175387,0.175384 0.131244,0.362582 0.150302,0.07515 0.175355,-0.03758 c 0,0 0.100203,-0.08768 0.100203,-0.150305 0,-0.06263 0,-0.212929 0,-0.212929 l -0.125254,-0.137779 -0.150304,-0.07515 z"
         style="fill:none;stroke:#ffff00;stroke-width:0.5;stroke-linecap:butt;stroke-linejoin:miter;stroke-miterlimit:4;stroke-dasharray:none;stroke-opacity:1" />
      <circle
         r="1.3069092"
         cy="4.2347612"
         cx="26.166733"
         id="path4666"
         style="opacity:1;fill:#000400;fill-opacity:1;stroke:#ffff00;stroke-width:0.5;stroke-linecap:square;stroke-linejoin:round;stroke-miterlimit:4;stroke-dasharray:none;stroke-opacity:1" />
      <path
         sodipodi:nodetypes="ccccsccsccsssc"
         inkscape:connector-curvature="0"
         id="path4895"
         d="m 32.830672,40.095667 -1.211678,-0.403892 -1.759815,-0.836633 c 0,0 -1.500172,-0.807787 -1.759818,-0.894334 -0.259644,-0.08655 -0.865481,-0.346195 -1.00973,-0.346195 -0.144248,0 -0.519289,-0.08655 -0.519289,-0.08655 h -0.952033 c 0,0 -1.730967,0.115398 -1.846364,0.115398 -0.115398,0 -1.355924,0.173095 -1.355924,0.173095 0,0 -0.256773,0.450919 -1.091622,0.721792 -0.158927,0.05157 -1.426176,0.406091 -1.948409,0.531226 -0.114958,0.02755 -0.127725,-0.119992 -0.276132,-0.646548 -0.07335,-0.260243 -0.222304,-0.882071 -0.349603,-1.092259 -0.391209,-0.645936 -1.096856,-0.783356 -1.096856,-0.783356"
         style="fill:none;stroke:#ffff00;stroke-width:0.5;stroke-linecap:butt;stroke-linejoin:miter;stroke-miterlimit:4;stroke-dasharray:none;stroke-opacity:1" />
      <path
         inkscape:connector-curvature="0"
         id="path4522"
         d="m 19.336252,39.02973 c 0,0 -0.09367,0.0562 -0.333586,0.335903 -0.292148,0.337267 -0.758848,0.864121 -0.856365,0.903127 -0.144247,0.0577 -1.03858,0.57699 -1.03858,0.57699 0,0 -0.721236,0.605837 -0.836634,0.663538 -0.115397,0.0577 -1.00973,0.461589 -1.00973,0.461589 l -0.807785,0.144248 c 0,0 -0.548139,0.02885 -0.634688,-0.173098 -0.08655,-0.201946 -0.403892,-1.269376 -0.403892,-1.269376 l -0.02885,-0.750085 -0.02885,-0.778934 c 0,0 0,-0.375044 0.08655,-0.51929 0.08655,-0.144248 0.201946,-0.57699 0.346193,-0.60584 0.144247,-0.02885 0.49044,0.201949 0.634688,0.375044 0.144247,0.173096 0.403892,0.346194 0.403892,0.346194 l 0.288494,-0.432741 -0.08655,-0.750086 0.288495,-0.663538 c 0,0 0.317343,-0.259646 0.51929,-0.259646 0.201946,0 0.634688,-0.02885 0.634688,-0.02885 l 0.490439,-0.259645 0.412151,0.206077 0.277777,-0.0039 0.768159,0.436879 0.561375,0.601474 0.147243,0.956877 z"
         style="fill:none;stroke:#ffff00;stroke-width:0.5;stroke-linecap:butt;stroke-linejoin:miter;stroke-miterlimit:4;stroke-dasharray:none;stroke-opacity:1" />
      <path
         inkscape:connector-curvature="0"
         id="path4538"
         d="m 47.832389,38.047355 -0.0577,-1.471319 V 35.76825 l -0.201946,-0.750085 -0.51929,0.230796 -0.201946,-0.634691 c 0,0 0.115398,-0.548137 -0.115398,-0.634688 -0.230796,-0.08655 -0.201946,-0.317343 -0.346194,-0.173095 -0.144248,0.144248 -0.490439,0.980882 -0.490439,1.125127 0,0.144248 -0.02885,0.490442 -0.0577,0.750086 -0.02885,0.259646 -0.230801,0.66354 -0.230801,0.66354 L 44.91859,36.056744 c 0,0 0.02885,-0.692388 0.08655,-0.807783 0.0577,-0.115398 0.259646,-0.952035 0.259646,-0.952035 l 0.144245,-0.721235 c 0,0 0.54814,-0.375042 0.0577,-0.288494 -0.490443,0.08655 -1.355924,0.115398 -1.471322,0.144248 -0.115398,0.02885 -0.923184,0.08655 -0.923184,0.08655 h -0.548137 l -0.346194,1.586719 0.173094,1.009728 -0.923181,0.259646 c 0,0 -0.02885,-0.490438 -0.02885,-0.750084 0,-0.259646 0,-0.923181 0.0577,-1.067429 0.0577,-0.144249 0.173096,-1.00973 0.173096,-1.00973 l -0.432742,-0.634688 c 0,0 -0.346194,-0.750085 -0.375042,-1.096279 -0.02885,-0.346195 -0.144248,-1.009732 -0.115398,-1.153978 0.02885,-0.144248 0.403892,-0.836634 0.51929,-0.923184 0.115398,-0.08655 0.634688,-0.663535 0.634688,-0.663535 0,0 0.778933,-0.115398 1.038579,-0.115398 0.259647,0 1.03858,0.02885 1.03858,0.02885 l 0.692388,0.403894 1.096277,0.144246 -0.08655,-0.605838 -0.230796,-0.865483 0.54814,-0.51929 0.745832,0.222197"
         style="fill:none;fill-opacity:1;stroke:#ffff00;stroke-width:0.5;stroke-linecap:butt;stroke-linejoin:miter;stroke-miterlimit:4;stroke-dasharray:none;stroke-opacity:1" />
      <path
         sodipodi:nodetypes="ccccc"
         inkscape:connector-curvature="0"
         id="path4524"
         d="M 20.794466,38.730762 19.617624,37.672314 18.925238,36.893378 18.17515,36.720277 16.963473,36.345233"
         style="fill:none;stroke:#ffff00;stroke-width:0.5;stroke-linecap:butt;stroke-linejoin:miter;stroke-miterlimit:4;stroke-dasharray:none;stroke-opacity:1" />
    </g>
  </g>
</svg>
