<?xml version="1.0" encoding="UTF-8" standalone="no"?>
<!-- Created with Inkscape (http://www.inkscape.org/) -->

<svg
   xmlns:dc="http://purl.org/dc/elements/1.1/"
   xmlns:cc="http://creativecommons.org/ns#"
   xmlns:rdf="http://www.w3.org/1999/02/22-rdf-syntax-ns#"
   xmlns:svg="http://www.w3.org/2000/svg"
   xmlns="http://www.w3.org/2000/svg"
   xmlns:sodipodi="http://sodipodi.sourceforge.net/DTD/sodipodi-0.dtd"
   xmlns:inkscape="http://www.inkscape.org/namespaces/inkscape"
   width="46.312908mm"
   height="82.889648mm"
   viewBox="0 0 46.312908 82.889648"
   version="1.1"
   id="svg4677"
   inkscape:version="0.92.1 r15371"
   sodipodi:docname="Hjälm_Vendel_sv_vit_20201220Sö.svg">
  <defs
     id="defs4671" />
  <sodipodi:namedview
     id="base"
     pagecolor="#ffffff"
     bordercolor="#666666"
     borderopacity="1.0"
     inkscape:pageopacity="0.0"
     inkscape:pageshadow="2"
     inkscape:zoom="1.5301741"
     inkscape:cx="6.4377252"
     inkscape:cy="131.1749"
     inkscape:document-units="mm"
     inkscape:current-layer="layer1"
     showgrid="false"
     inkscape:window-width="1920"
     inkscape:window-height="1017"
     inkscape:window-x="-8"
     inkscape:window-y="-8"
     inkscape:window-maximized="1" />
  <metadata
     id="metadata4674">
    <rdf:RDF>
      <cc:Work
         rdf:about="">
        <dc:format>image/svg+xml</dc:format>
        <dc:type
           rdf:resource="http://purl.org/dc/dcmitype/StillImage" />
        <dc:title></dc:title>
      </cc:Work>
    </rdf:RDF>
  </metadata>
  <g
     inkscape:label="Layer 1"
     inkscape:groupmode="layer"
     id="layer1"
     transform="translate(-63.022117,-85.465891)">
    <g
       id="g4641">
      <path
         inkscape:connector-curvature="0"
         id="path4573"
         d="m 86.012961,86.222434 -0.74414,0.218591 -1.444356,0.700733 -1.18184,1.09399 -0.656808,0.963248 -0.481107,0.743624 -0.481625,0.963249 -0.306441,0.831474 -0.04393,0.656807 0.568957,0.306441 -2.669604,0.262517 -1.794722,0.74414 -1.181841,0.131258 -1.357023,0.612883 -0.525032,0.612366 -3.370337,2.01383 -0.919324,0.393775 -0.393774,1.225764 -1.575614,2.057236 -1.094507,2.6262 -0.568958,0.4377 0.131258,0.52503 0.04393,0.4377 -0.788065,2.71353 -0.656291,4.28966 -0.744141,4.33359 0.174667,2.01331 0.263033,2.36368 0.65629,4.94595 0.612883,3.23908 0.568957,1.3131 0.831474,0.65629 0.919324,0.56896 1.269173,0.48162 1.576131,0.39378 0.831474,0.26303 0.04393,1.09399 0.131258,2.27635 0.262516,1.48776 0.481625,1.48828 0.875398,2.01331 1.050582,1.53221 0.831474,1.22577 1.313098,1.13791 2.101164,1.66295 1.09399,0.4377 1.532206,0.35036 1.269174,0.13126 1.882055,0.39378 1.838648,0.0884 h 1.400431 l 1.969389,-0.2191 h 1.444874 l 0.568957,0.2191 0.30644,0.83148 0.349851,1.75079 0.700215,2.67013 0.39429,2.80138 0.306443,2.05723 0.174664,1.96939 0.08785,2.80138 0.08733,1.61954 0.175183,1.66347 0.04393,0.65629 0.525031,0.52555 c 0,0 0.612984,0.17497 0.788067,0.26251 0.17508,0.0875 1.750896,0.35021 1.925981,0.30644 0.17508,-0.0438 2.407087,-0.0439 2.407087,-0.0439 l 1.575617,-0.39378 c 0,0 0.35047,-0.39393 0.52555,-0.4377 0.17509,-0.0438 1.48828,-0.87539 1.48828,-0.87539 l 0.34985,-0.52555 0.48163,-0.56896 0.48162,-0.8754 0.0873,-0.91932 -0.26252,-0.52504 -0.48163,-0.91932 c 0,0 -0.30623,-0.52529 -0.39377,-0.74414 -0.0875,-0.21886 -0.4377,-1.22551 -0.4377,-1.44436 0,-0.21885 -0.48162,-1.66295 -0.48162,-1.66295 l -0.56896,-1.88205 -0.26252,-2.05724 -0.4377,-1.92598 -0.13125,-1.96991 -0.21911,-1.66294 -0.17519,-2.23242 3.72071,-1.35703 1.13791,-0.96273 0.65681,-0.74414 0.74414,-1.26969 0.30644,-0.83147 0.34985,-1.35703 0.21911,-0.9188 0.26252,-1.09451 0.0873,-1.22525 -0.17518,-1.3131 -0.30593,-2.88923 -0.17518,-1.57561 -0.17519,-1.3131 v -0.35037 l 0.6563,-0.52503 0.26303,-0.26251 -0.0878,-0.91933 -0.0873,-1.00665 -0.21911,-1.09451 0.17518,-0.65629 0.0879,-0.52503 -0.21911,-0.26304 -0.26251,-0.96273 -0.30645,-1.35702 -0.2191,-0.8754 v -0.30644 l 0.0439,-0.56896 -0.17518,-0.34985 -0.70022,-0.35037 -0.17518,-0.78806 -0.21859,-1.53169 v -1.35702 l -0.0439,-0.61289 v -0.78806 l -0.30644,-0.56896 -0.17518,-0.52555 v -0.83147 c 0,0 2.6e-4,-0.78817 -0.0434,-0.96325 -0.0438,-0.17508 -0.0879,-0.65629 -0.0879,-0.65629 l -0.0434,-0.52555 -0.30644,-1.09399 -0.26251,-1.05058 -0.74415,-2.71353 -0.70073,-1.61954 -0.52503,-1.3131 -0.91932,-1.48828 -0.8754,-1.575616 -0.74414,-1.181839 -1.093998,-0.788066 -1.750799,-1.444356 -1.488281,-1.006657 -1.006657,-0.393775 -1.619539,-0.306441 -0.96325,-0.04393 -0.21859,-0.219108 L 92.009539,92.525463 91.221474,91.518806 90.739851,90.293042 90.39,90.030525 89.908377,89.067276 89.514602,88.191878 88.726536,87.141813 88.288837,86.835371 87.457363,86.44108 86.713222,86.266414 Z m 20.182229,42.541586 -0.0863,1.50017 -0.0289,1.12551 -0.0868,0.95188 -0.0863,1.18288 c 0,0 -0.37535,1.55796 -0.43305,1.70222 -0.0577,0.14424 -0.57671,1.09605 -0.57671,1.09605 l -0.46147,0.69247 c 0,0 -0.80806,0.57689 -0.92346,0.63459 -0.11539,0.0577 -0.8077,0.11523 -0.8077,0.11523 l -0.60565,0.0579 -0.69246,0.0579 -0.57723,-0.0289 -0.54777,-0.23099 -0.519346,-0.25942 -1.799891,-0.8909 -0.831475,-1.96939 c 0,0 0.525124,-1.00555 0.553972,-1.1498 0.02885,-0.14425 0.05788,-0.57723 0.05788,-0.57723 l 0.519348,-0.25941 1.240235,-0.75034 c 0,0 3.116017,-1.38477 3.260267,-1.50017 0.14424,-0.11539 3.43286,-1.50017 3.43286,-1.50017 z m -20.944456,3.08715 2.221053,0.20206 3.317628,0.66352 1.32705,0.86558 0.577225,0.74983 0.01601,1.04438 -0.175183,0.83147 -0.100253,1.0666 -0.519348,0.54829 -1.067633,0.86558 -0.519351,0.51935 -0.663525,0.34623 c 0,0 -0.951897,0.28811 -1.124995,0.37466 -0.173096,0.0865 -0.923478,0.26002 -1.096574,0.28887 -0.173098,0.0289 -1.125016,0 -1.298112,0 -0.173095,0 -0.807702,-0.0579 -0.807702,-0.0579 l -2.913518,-0.51935 -1.355989,-0.77876 -1.413867,-1.15394 -0.461471,-0.69246 c 0,0 -0.923208,-1.06757 -1.009758,-1.21181 -0.08655,-0.14425 -0.836641,-1.50017 -0.836641,-1.50017 0,0 -0.259593,-0.69224 -0.317293,-0.95188 -0.0577,-0.25965 0.346232,-0.43305 0.346232,-0.43305 l 0.749825,-0.40359 1.962154,-0.34623 2.596224,-0.17312 z"
         style="fill:none;fill-opacity:1;stroke:#000000;stroke-width:1.5;stroke-linecap:butt;stroke-linejoin:miter;stroke-miterlimit:4;stroke-dasharray:none;stroke-opacity:1" />
      <path
         inkscape:connector-curvature="0"
         id="path4498"
         d="m 97.130536,134.50135 0.350163,0.83164 0.48147,1.13803 0.04377,1.00672 -0.26262,1.26934 -0.350163,0.78786 -0.218853,0.91918 -0.04377,0.87541 c 0,0 0,0.52524 -0.218855,0.56902 -0.21885,0.0438 -1.138026,0.0438 -1.138026,0.0438 l -0.787868,-0.56902 -0.962948,-0.96295 -0.525246,-0.74409 -0.744096,-1.70705 -0.218852,-1.75081 0.175082,-0.83164 0.393933,-0.52525 0.700323,-0.39393 1.313114,-0.13131 0.875408,-0.13131 z"
         style="fill:none;fill-opacity:1;stroke:#000000;stroke-width:0.5;stroke-linecap:butt;stroke-linejoin:miter;stroke-miterlimit:4;stroke-dasharray:none;stroke-opacity:1" />
      <path
         inkscape:connector-curvature="0"
         id="path4500"
         d="m 97.962169,136.47102 v 0 l -1.575734,-0.43771 h -0.04377"
         style="fill:none;stroke:#000000;stroke-width:0.5;stroke-linecap:butt;stroke-linejoin:miter;stroke-miterlimit:4;stroke-dasharray:none;stroke-opacity:1" />
      <path
         inkscape:connector-curvature="0"
         id="path4502"
         d="m 96.342665,136.03331 -1.575734,0.13131 -0.48147,0.17509 -0.612786,0.4377"
         style="fill:none;stroke:#000000;stroke-width:0.5;stroke-linecap:butt;stroke-linejoin:miter;stroke-miterlimit:4;stroke-dasharray:none;stroke-opacity:1" />
      <path
         inkscape:connector-curvature="0"
         id="path4504"
         d="m 96.342665,136.03331 0.306396,1.66328"
         style="fill:none;stroke:#000000;stroke-width:0.5;stroke-linecap:butt;stroke-linejoin:miter;stroke-miterlimit:4;stroke-dasharray:none;stroke-opacity:1" />
      <path
         inkscape:connector-curvature="0"
         id="path4506"
         d="m 97.393156,139.53494 -0.641979,-0.88189 c 0,0 -0.432957,-0.11545 -0.548413,-0.0289 -0.115459,0.0866 -0.635003,0.25977 -0.635003,0.25977 l -0.288639,0.37523 -0.375232,0.43296 -0.288634,0.40409"
         style="fill:none;stroke:#000000;stroke-width:0.5;stroke-linecap:butt;stroke-linejoin:miter;stroke-miterlimit:4;stroke-dasharray:none;stroke-opacity:1" />
      <path
         inkscape:connector-curvature="0"
         id="path4508"
         d="m 95.365715,136.66145 -0.136962,-0.0398 -0.165698,0.0829 -0.03314,0.0829 v 0.1657 l 0.115988,0.0994 h 0.149127 l 0.132556,-0.0663 0.04971,-0.19884 -0.04971,-0.0829"
         style="fill:none;stroke:#000000;stroke-width:0.5;stroke-linecap:butt;stroke-linejoin:miter;stroke-miterlimit:4;stroke-dasharray:none;stroke-opacity:1" />
      <path
         inkscape:connector-curvature="0"
         id="path4510"
         d="m 96.902288,136.60509 -0.215408,-0.0828 c 0,0 -0.08285,-0.0166 -0.09942,0.0497 -0.01656,0.0663 -0.01656,0.23197 -0.01656,0.23197 l 0.09942,0.13256 0.115988,-0.0331 0.115988,-0.13256 z"
         style="fill:none;stroke:#000000;stroke-width:0.5;stroke-linecap:butt;stroke-linejoin:miter;stroke-miterlimit:4;stroke-dasharray:none;stroke-opacity:1" />
      <path
         inkscape:connector-curvature="0"
         id="path4512"
         d="m 95.477295,136.78736 -0.248542,-0.1657"
         style="fill:none;stroke:#000000;stroke-width:0.5;stroke-linecap:butt;stroke-linejoin:miter;stroke-miterlimit:4;stroke-dasharray:none;stroke-opacity:1" />
      <path
         sodipodi:nodetypes="ccccccscccccccccssccccccccccccccscsccscccccccccccscc"
         inkscape:connector-curvature="0"
         id="path4528"
         d="m 75.903338,133.17843 -1.211677,-0.2308 -0.490441,-0.77893 -1.529021,-0.54814 -0.51929,-0.75009 -0.403892,-1.06743 c 0,0 -0.346193,-0.75008 -0.346193,-0.86548 v -1.00973 -0.95203 l 0.0577,-0.83664 0.51929,-0.89433 0.375042,-0.57699 0.432742,-0.63469 0.54814,-0.54814 0.923182,-0.46159 1.09628,-0.43274 c 0,0 0.836633,-0.0577 1.096278,-0.0577 0.259646,0 1.58672,-0.20194 1.961764,-0.20194 h 1.298224 l 0.317344,-1.70212 0.403892,-0.86548 0.403892,-0.51929 -2.682999,0.83663 -1.817515,0.2885 -0.894332,-0.25965 -1.557871,-0.77894 -0.432741,-0.66353 -0.461591,-0.75008 0.403892,-0.2308 0.634688,0.63469 0.403892,0.49043 1.067429,0.49045 c 0,0 0.576989,0.1154 1.06743,0.1154 0.490441,0 1.442472,-0.0866 1.673269,-0.1154 0.230794,-0.0289 0.952031,-0.25965 1.211676,-0.2885 0.259645,-0.0289 2.452203,-0.54814 2.452203,-0.54814 l 0.692386,-0.14424 c 0,0 0.778936,-0.20195 0.952033,-0.20195 0.173097,0 0.836634,0.0577 0.98088,0.1154 0.144249,0.0577 1.12513,0.49044 1.12513,0.49044 l 0.778934,0.72123 c 0,0 -0.02885,0.31735 0,0.49044 0.02885,0.1731 0.144247,1.52903 0.144247,1.52903 l -0.576989,0.72123 0.0577,2.59645 h -0.952033 l -0.0577,-1.96176 -1.846365,0.20194 -1.817514,0.14425 h -1.702119 c -0.548138,0 -1.673268,0.0577 -1.673268,0.0577 l -1.557872,0.37504"
         style="fill:none;stroke:#000000;stroke-width:0.69999999;stroke-linecap:butt;stroke-linejoin:miter;stroke-miterlimit:4;stroke-dasharray:none;stroke-opacity:1" />
      <path
         sodipodi:nodetypes="ccscscccsccccscccscc"
         inkscape:connector-curvature="0"
         id="path4530"
         d="m 80.4904,122.33104 h 2.452203 c 0,0 1.125129,-0.14425 1.240527,-0.14425 0.115398,0 0.403892,-0.0577 0.605838,-0.14425 0.201946,-0.0866 0.51929,-0.28849 0.51929,-0.49044 0,-0.20195 0.173097,-0.66353 0.173097,-0.66353 l -0.115398,-0.49045 -0.173096,-0.49044 c 0,0 -0.461591,-0.57699 -0.605839,-0.57699 -0.144248,0 -0.317345,-0.0866 -0.432741,0.14425 -0.115399,0.2308 -0.346195,0.43274 -0.461592,0.51929 -0.115398,0.0866 -0.778935,-0.0866 -0.778935,-0.0866 l -0.346194,-0.31734 c 0,0 -0.201945,-0.0577 -0.403892,0 -0.201945,0.0577 -0.663537,0.43274 -0.663537,0.43274 l -0.432742,0.69239 -0.403892,0.40389 c 0,0 -0.173097,0.40389 -0.173097,0.51929 0,0.1154 -0.02885,0.54814 -0.02885,0.54814 z"
         style="fill:none;stroke:#000000;stroke-width:0.69999999;stroke-linecap:butt;stroke-linejoin:miter;stroke-miterlimit:4;stroke-dasharray:none;stroke-opacity:1" />
      <path
         inkscape:connector-curvature="0"
         id="path4532"
         d="m 94.482382,132.97648 c 0,0 0.894334,-0.0289 1.009732,-0.0289 0.115398,0 0.836634,-0.11539 0.836634,-0.11539 l -0.173096,-2.56761 -0.317344,-1.84636 -0.173098,-1.75982 -0.08655,-1.38477 -0.115398,-1.50017 c 0,0 -0.144246,-0.86548 -0.144246,-1.06743 0,-0.20194 0.0577,-1.15398 0.0577,-1.41362 0,-0.25965 0,-1.29823 0,-1.29823 l 0.230796,-1.12513 0.02885,-0.31734"
         style="fill:none;stroke:#000000;stroke-width:0.5;stroke-linecap:butt;stroke-linejoin:miter;stroke-miterlimit:4;stroke-dasharray:none;stroke-opacity:1" />
      <path
         sodipodi:nodetypes="csccscccc"
         inkscape:connector-curvature="0"
         id="path4534"
         d="m 92.664869,119.38839 c 0,0 0.605838,0.57699 0.605838,0.75009 0,0.1731 0.346194,1.03858 0.375039,1.29823 0.02885,0.25964 0.750089,2.48105 0.750089,2.48105 0,0 0.173095,1.41362 0.173095,1.61557 0,0.20194 0.201946,2.74069 0.201946,2.74069 l -0.02885,1.29823 -0.173096,1.61557 c 0.06067,0.61299 0.03282,1.19184 -0.08655,1.78866"
         style="fill:none;stroke:#000000;stroke-width:0.69999999;stroke-linecap:butt;stroke-linejoin:miter;stroke-miterlimit:4;stroke-dasharray:none;stroke-opacity:1" />
      <path
         inkscape:connector-curvature="0"
         id="path4540"
         d="m 105.67597,119.24415 c -0.14425,0 -0.92318,0.20194 -0.92318,0.20194 l -0.2308,-1.03858 -0.20195,-1.00973 1.06744,0.14425 0.17309,1.64442"
         style="fill:none;stroke:#000000;stroke-width:0.69999999;stroke-linecap:butt;stroke-linejoin:miter;stroke-miterlimit:4;stroke-dasharray:none;stroke-opacity:1" />
      <path
         inkscape:connector-curvature="0"
         id="path4542"
         d="m 104.08925,119.50379 -0.1731,-1.15398 -0.0577,-0.51929 c 0,0 -0.34619,-0.25964 -0.54814,-0.25964 -0.20194,0 -0.40389,0.17309 -0.43274,0.28849 -0.0289,0.1154 -0.17309,0.1731 -0.17309,0.1731 l -0.0866,-0.46159 c 0,0 -0.0866,-0.25965 -0.20195,-0.25965 -0.1154,0 -0.1731,0.0577 -0.2885,0.1154 -0.11539,0.0577 -0.23079,0.40389 -0.23079,0.40389 0,0 -0.1731,0.1154 -0.1731,0.31735 0,0.20194 0.1154,0.43274 0.25965,0.51929 0.14424,0.0866 0.40389,0.31734 0.49044,0.43274 0.0866,0.1154 0.23079,0.46159 0.23079,0.46159 l 0.1731,0.1731 z"
         style="fill:none;stroke:#000000;stroke-width:0.69999999;stroke-linecap:butt;stroke-linejoin:miter;stroke-miterlimit:4;stroke-dasharray:none;stroke-opacity:1" />
      <path
         inkscape:connector-curvature="0"
         id="path4546"
         d="m 85.481765,124.72989 -2.829802,0.41083 -1.136881,0.39274 -1.232483,0.45268 -1.458309,0.29869 -1.131714,1.28364 -1.360124,0.77153 -1.582849,0.88626 -1.286226,0.23254 0.993221,2.70991 h 1.360124 l 1.615405,-0.14418 1.558044,-0.25993 2.365747,-0.25941 1.529106,-0.17312 1.759582,0.0579 h 1.615922 c 0,0 3.432711,0.54786 3.548106,0.57671 0.115398,0.0289 1.586664,0.25993 1.81746,0.25993 0.230796,0 1.413867,0.49041 1.413867,0.49041 0,0 0.37515,-0.77907 0.202052,-1.21181 -0.173093,-0.43274 -0.577223,-1.96164 -0.577223,-1.96164 l -0.186039,-1.00252 -5.29e-4,-0.004 -0.159682,-1.18649 -2.298049,-1.12344 -2.555401,-1.05162 z"
         style="fill:none;fill-opacity:1;stroke:#000000;stroke-width:0.5;stroke-linecap:butt;stroke-linejoin:miter;stroke-miterlimit:4;stroke-dasharray:none;stroke-opacity:1" />
      <path
         sodipodi:nodetypes="ccccccssccccsccscccccccccccc"
         inkscape:connector-curvature="0"
         d="m 97.569273,131.9379 -0.923181,-3.80812 -0.02886,-1.78867 1.384787,-0.77893 0.923184,-0.69239 1.327067,-0.77894 c 0,0 0.31735,-0.34619 0.66354,-0.46159 0.3462,-0.1154 0.69239,-0.14425 0.92318,-0.25964 0.2308,-0.1154 1.12513,-0.14425 1.12513,-0.14425 h 0.86549 l 0.60584,0.0866 0.66353,0.28849 c 0,0 0.92318,0.49045 0.92318,0.60584 0,0.1154 1.29823,1.09628 1.29823,1.09628 m -9.751116,6.63537 c 0,0 1.009733,-0.31734 1.125131,-0.43274 0.115398,-0.1154 0.894331,-0.40389 0.894331,-0.40389 l 0.778934,-0.46159 1.09628,-0.40389 1.44247,-0.72124 1.06743,-0.37504 1.47132,-0.43275 1.96177,-0.69238 0.46159,-0.25965 v 0 c 0,0 -0.0147,-0.64667 -0.0381,-0.81063 -0.0234,-0.16395 -0.28106,-1.10082 -0.28106,-1.10082 l -0.229,-0.54075"
         style="fill:none;fill-opacity:1;stroke:#000000;stroke-width:0.5;stroke-linecap:butt;stroke-linejoin:miter;stroke-miterlimit:4;stroke-dasharray:none;stroke-opacity:1"
         id="path4562" />
      <path
         sodipodi:nodetypes="cc"
         inkscape:connector-curvature="0"
         id="path4548"
         d="m 98.173616,131.56179 -0.171601,-5.99961"
         style="fill:none;stroke:#000000;stroke-width:0.5;stroke-linecap:butt;stroke-linejoin:miter;stroke-miterlimit:4;stroke-dasharray:none;stroke-opacity:1" />
      <path
         inkscape:connector-curvature="0"
         id="path4552"
         d="m 99.588732,131.10127 0.372012,-1.9321 c 0,0 0.09369,-1.66294 0.09369,-1.78005 0,-0.11711 0.0703,-1.47557 0.0703,-1.47557 l -0.163939,-1.33504"
         style="fill:none;stroke:#000000;stroke-width:0.5;stroke-linecap:butt;stroke-linejoin:miter;stroke-miterlimit:4;stroke-dasharray:none;stroke-opacity:1" />
      <path
         sodipodi:nodetypes="ccccc"
         inkscape:connector-curvature="0"
         id="path4554"
         d="m 101.46395,130.23579 0.18316,-2.19086 0.21079,-2.13138 -0.14053,-1.63952 c -0.008,-0.35917 0.0789,1.02881 -0.004,-0.60915"
         style="fill:none;stroke:#000000;stroke-width:0.5;stroke-linecap:butt;stroke-linejoin:miter;stroke-miterlimit:4;stroke-dasharray:none;stroke-opacity:1" />
      <path
         inkscape:connector-curvature="0"
         id="path4556"
         d="m 103.31005,129.0989 c 0,0 0.0937,-1.42872 0.14053,-1.52241 0.0468,-0.0937 0.0234,-1.19451 0.0234,-1.38188 0,-0.18737 -0.0703,-1.0774 -0.0703,-1.0774 l -0.16395,-1.33504 -0.0468,-0.42159"
         style="fill:none;stroke:#000000;stroke-width:0.5;stroke-linecap:butt;stroke-linejoin:miter;stroke-miterlimit:4;stroke-dasharray:none;stroke-opacity:1" />
      <path
         sodipodi:nodetypes="ccccc"
         inkscape:connector-curvature="0"
         id="path4558"
         d="m 105.06668,128.58363 c 0.0468,-0.11711 0.11711,-1.42873 0.11711,-1.42873 l -0.11711,-1.26477 -0.0703,-0.81976 -0.56097,-1.75845"
         style="fill:none;stroke:#000000;stroke-width:0.5;stroke-linecap:butt;stroke-linejoin:miter;stroke-miterlimit:4;stroke-dasharray:none;stroke-opacity:1" />
      <path
         inkscape:connector-curvature="0"
         id="path4560"
         d="m 106.75304,128.06835 c 0,0 -0.0468,-1.0774 -0.11711,-1.26478 -0.0703,-0.18737 -0.51527,-1.96742 -0.51527,-1.96742 l 0.0234,-0.21079"
         style="fill:none;stroke:#000000;stroke-width:0.5;stroke-linecap:butt;stroke-linejoin:miter;stroke-miterlimit:4;stroke-dasharray:none;stroke-opacity:1" />
      <path
         inkscape:connector-curvature="0"
         id="path4564"
         d="m 92.114462,132.30768 c -0.07026,-0.16395 -2.412434,-5.85543 -2.412434,-5.85543"
         style="fill:none;stroke:#000000;stroke-width:0.5;stroke-linecap:butt;stroke-linejoin:miter;stroke-miterlimit:4;stroke-dasharray:none;stroke-opacity:1" />
      <path
         inkscape:connector-curvature="0"
         id="path4566"
         d="m 89.983087,131.74556 -3.068245,-6.62835"
         style="fill:none;stroke:#000000;stroke-width:0.5;stroke-linecap:butt;stroke-linejoin:miter;stroke-miterlimit:4;stroke-dasharray:none;stroke-opacity:1" />
      <path
         inkscape:connector-curvature="0"
         id="path4568"
         d="m 87.82829,131.41765 -3.208778,-6.46439"
         style="fill:none;stroke:#000000;stroke-width:0.5;stroke-linecap:butt;stroke-linejoin:miter;stroke-miterlimit:4;stroke-dasharray:none;stroke-opacity:1" />
      <path
         inkscape:connector-curvature="0"
         id="path4570"
         d="m 85.275321,131.2537 -2.623232,-6.11307"
         style="fill:none;stroke:#000000;stroke-width:0.5;stroke-linecap:butt;stroke-linejoin:miter;stroke-miterlimit:4;stroke-dasharray:none;stroke-opacity:1" />
      <path
         inkscape:connector-curvature="0"
         id="path4572"
         d="m 82.884904,131.33206 -2.827246,-5.68334"
         style="fill:none;stroke:#000000;stroke-width:0.5;stroke-linecap:butt;stroke-linejoin:miter;stroke-miterlimit:4;stroke-dasharray:none;stroke-opacity:1" />
      <path
         inkscape:connector-curvature="0"
         id="path4574"
         d="m 80.77835,131.48792 -2.047766,-5.14681"
         style="fill:none;stroke:#000000;stroke-width:0.5;stroke-linecap:butt;stroke-linejoin:miter;stroke-miterlimit:4;stroke-dasharray:none;stroke-opacity:1" />
      <path
         inkscape:connector-curvature="0"
         id="path4576"
         d="m 78.834347,131.58161 c -0.187374,-0.2108 -1.63952,-3.72406 -1.63952,-3.72406"
         style="fill:none;stroke:#000000;stroke-width:0.5;stroke-linecap:butt;stroke-linejoin:miter;stroke-miterlimit:4;stroke-dasharray:none;stroke-opacity:1" />
      <path
         inkscape:connector-curvature="0"
         id="path4578"
         d="m 77.432358,132.02445 -1.713101,-3.11292"
         style="fill:none;stroke:#000000;stroke-width:0.5;stroke-linecap:butt;stroke-linejoin:miter;stroke-miterlimit:4;stroke-dasharray:none;stroke-opacity:1" />
      <path
         inkscape:connector-curvature="0"
         id="path4580"
         d="M 75.34451,132.05004 73.941576,129.3703"
         style="fill:none;stroke:#000000;stroke-width:0.5;stroke-linecap:butt;stroke-linejoin:miter;stroke-miterlimit:4;stroke-dasharray:none;stroke-opacity:1" />
      <path
         inkscape:connector-curvature="0"
         id="path4582"
         d="m 73.67694,123.77145 -0.165566,0.13246 0.08278,0.0331 h 0.182123 l 0.03311,-0.18213 z"
         style="fill:none;stroke:#000000;stroke-width:0.69999999;stroke-linecap:butt;stroke-linejoin:miter;stroke-miterlimit:4;stroke-dasharray:none;stroke-opacity:1" />
      <path
         inkscape:connector-curvature="0"
         id="path4584"
         d="m 83.412172,118.60582 -0.248347,0.0166 c 0,0 -0.01656,0.13245 0,0.19868 0.01656,0.0662 0.03311,0.14901 0.132453,0.18212 0.09934,0.0331 0.231791,-0.0662 0.231791,-0.0662 l 0.06623,-0.13245 -0.04967,-0.13246"
         style="fill:none;stroke:#000000;stroke-width:0.69999999;stroke-linecap:butt;stroke-linejoin:miter;stroke-miterlimit:4;stroke-dasharray:none;stroke-opacity:1" />
      <path
         inkscape:connector-curvature="0"
         id="path4586"
         d="m 83.544629,118.67204 -0.132457,-0.0662"
         style="fill:none;stroke:#000000;stroke-width:0.69999999;stroke-linecap:butt;stroke-linejoin:miter;stroke-miterlimit:4;stroke-dasharray:none;stroke-opacity:1" />
      <path
         inkscape:connector-curvature="0"
         id="path4588"
         d="m 92.318675,127.35084 0.201915,-1.93831 -0.08739,-1.79146 -0.262165,-1.92253 -0.13108,-0.78649 c 0,0 -0.174776,-0.74279 -0.174776,-0.91757 0,-0.17477 -0.08739,-1.31081 -0.08739,-1.31081 l -0.436938,-0.91758 c 0,0 -0.174776,-0.96126 -0.262163,-1.13604 -0.08739,-0.17477 -0.262165,-1.22343 -0.262165,-1.22343 0,0 -0.174776,-0.6991 -0.174776,-0.96126 0,-0.26217 -0.08739,-0.83019 0,-1.04866 0.08739,-0.21847 0.524328,-0.87387 0.524328,-0.87387 0,0 0.830183,-0.34955 1.004959,-0.39325 0.174775,-0.0437 0.305858,-0.30586 1.004961,-0.26216 0.699101,0.0437 1.398204,0.0437 1.398204,0.0437 0,0 0.742797,0.0437 0.873876,0.30585 0.131083,0.26217 0.699104,1.26713 0.699104,1.4419 0,0.17478 0.04369,1.35451 0.04369,1.35451 l -0.262165,1.09235 -0.08739,1.4419 -0.204965,1.00414 0.59821,3.14678 0.262162,2.53425 0.120508,2.10832"
         style="fill:none;stroke:#000000;stroke-width:0.69999999;stroke-linecap:butt;stroke-linejoin:miter;stroke-miterlimit:4;stroke-dasharray:none;stroke-opacity:1" />
      <path
         inkscape:connector-curvature="0"
         id="path4590"
         d="m 91.340852,117.76609 -5.496033,-0.39169 -3.139774,-0.20163 -2.79411,0.0864 -3.514243,-0.11523 -2.506058,0.0576 -2.477253,0.0576 -1.987563,0.0576 c 0,0 -1.325042,-0.0576 -1.526679,-0.0288 -0.201636,0.0288 -1.872342,0.14403 -1.872342,0.14403 l -1.613094,-0.0864 -0.460885,0.0288"
         style="fill:none;stroke:#000000;stroke-width:0.69999999;stroke-linecap:butt;stroke-linejoin:miter;stroke-miterlimit:4;stroke-dasharray:none;stroke-opacity:1" />
      <path
         inkscape:connector-curvature="0"
         id="path4592"
         d="m 90.799324,116.10697 -2.073979,-0.17283 c 0,0 -4.522426,-0.0864 -4.637647,-0.11522 -0.115221,-0.0288 -3.744685,-0.0576 -3.744685,-0.0576 L 77.20324,115.7037 H 74.898818 72.94006 l -2.362031,0.11522 -1.469068,0.0576 -1.03699,0.0288 h -1.785926 l -1.296237,0.14403 -1.212308,0.0684"
         style="fill:none;stroke:#000000;stroke-width:0.69999999;stroke-linecap:butt;stroke-linejoin:miter;stroke-miterlimit:4;stroke-dasharray:none;stroke-opacity:1" />
      <path
         inkscape:connector-curvature="0"
         id="path4594"
         d="m 74.639571,115.58847 -0.08642,-1.95875 0.201638,-2.7365 0.345662,-1.98756 0.345663,-2.36204 0.662522,-2.79411 0.144027,-0.86415"
         style="fill:none;stroke:#000000;stroke-width:0.69999999;stroke-linecap:butt;stroke-linejoin:miter;stroke-miterlimit:4;stroke-dasharray:none;stroke-opacity:1" />
      <path
         sodipodi:nodetypes="ccccccc"
         inkscape:connector-curvature="0"
         id="path4596"
         d="m 75.042844,102.91416 -0.5473,1.90115 -0.403273,2.56367 -0.403274,2.62128 -0.172832,2.13158 -0.288052,1.87235 0.02881,1.6419"
         style="fill:none;stroke:#000000;stroke-width:0.69999999;stroke-linecap:butt;stroke-linejoin:miter;stroke-miterlimit:4;stroke-dasharray:none;stroke-opacity:1" />
      <path
         inkscape:connector-curvature="0"
         id="path4598"
         d="m 69.195376,115.76131 c 0.05761,-0.28806 0.432079,-3.60066 0.432079,-3.60066 0,0 0.432079,-3.65827 0.432079,-3.77349 0,-0.11522 0.662521,-2.90933 0.662521,-2.90933 l 0.374468,-2.07398 0.691328,-1.49787 0.979379,-1.87235 1.440262,-2.131585 0.979379,-1.0946 2.073979,-2.045175 0.835352,-0.691326 -1.238626,0.288052 -0.748937,0.748937 -1.6419,1.584291 -1.036989,1.209821 -0.979379,1.440263 -1.03699,1.699512 -0.835352,1.58429 -0.604911,1.92995 -0.5473,2.21801 -0.345663,2.82291 -0.403274,2.39084 -0.489689,3.71588"
         style="fill:none;stroke:#000000;stroke-width:0.69999999;stroke-linecap:butt;stroke-linejoin:miter;stroke-miterlimit:4;stroke-dasharray:none;stroke-opacity:1" />
      <path
         inkscape:connector-curvature="0"
         id="path4600"
         d="m 68.158387,117.3456 0.172831,2.47725 0.115221,2.1892 0.345664,3.2838 0.345663,2.218 v 2.07398 l 0.921768,0.14403 -0.115221,-1.32504 c 0,0 -0.201637,-2.99575 -0.201637,-3.11097 0,-0.11522 -0.144026,-1.75712 -0.115221,-2.13159 0.02881,-0.37447 -0.288052,-2.59247 -0.288052,-2.59247 l 0.02881,-1.90115 0.05761,-1.35385"
         style="fill:none;stroke:#000000;stroke-width:0.69999999;stroke-linecap:butt;stroke-linejoin:miter;stroke-miterlimit:4;stroke-dasharray:none;stroke-opacity:1" />
      <path
         inkscape:connector-curvature="0"
         id="path4602"
         d="m 71.749017,129.80304 c -0.825325,0.0728 -2.611251,-0.21521 -2.611251,-0.21521 l -1.440263,-0.28805 -1.008185,-0.46088 -1.209821,-0.86416"
         style="fill:none;stroke:#000000;stroke-width:0.69999999;stroke-linecap:butt;stroke-linejoin:miter;stroke-miterlimit:4;stroke-dasharray:none;stroke-opacity:1" />
      <path
         inkscape:connector-curvature="0"
         id="path4604"
         d="m 71.481088,132.3566 2.150298,0.54384 1.060275,0.0472"
         style="fill:none;stroke:#000000;stroke-width:0.5;stroke-linecap:butt;stroke-linejoin:miter;stroke-miterlimit:4;stroke-dasharray:none;stroke-opacity:1" />
      <path
         inkscape:connector-curvature="0"
         id="path4606"
         d="m 66.359953,103.38061 2.259318,-0.46645 1.958758,-0.28805"
         style="fill:none;stroke:#000000;stroke-width:0.69999999;stroke-linecap:butt;stroke-linejoin:miter;stroke-miterlimit:4;stroke-dasharray:none;stroke-opacity:1" />
      <path
         inkscape:connector-curvature="0"
         id="path4608"
         d="m 70.261171,103.43266 c 0,0 -1.065795,0.20163 -1.209821,0.25924 -0.144026,0.0576 -1.901147,0.5473 -1.901147,0.5473 l -1.184184,0.54206"
         style="fill:none;stroke:#000000;stroke-width:0.69999999;stroke-linecap:butt;stroke-linejoin:miter;stroke-miterlimit:4;stroke-dasharray:none;stroke-opacity:1" />
      <path
         inkscape:connector-curvature="0"
         id="path4610"
         d="m 71.096523,103.40385 c 0,0 1.555484,-0.37447 1.728316,-0.40327 0.172832,-0.0288 2.218005,-0.0864 2.218005,-0.0864 l 1.843537,-0.23044 2.966943,0.17283 2.016369,-0.0288 2.189199,0.28805 1.987564,-0.0288 2.30442,0.0864"
         style="fill:none;stroke:#000000;stroke-width:0.69999999;stroke-linecap:butt;stroke-linejoin:miter;stroke-miterlimit:4;stroke-dasharray:none;stroke-opacity:1" />
      <path
         inkscape:connector-curvature="0"
         id="path4612"
         d="m 87.947605,101.81956 c 0,0 -1.152213,-0.0576 -1.41146,0 -0.259247,0.0576 -2.13159,0.11522 -2.13159,0.11522 l -2.79411,-0.34566 -2.218005,-0.11522 c 0,0 -1.69951,0.14402 -1.843537,0.14402 -0.144027,0 -1.728316,-0.0864 -1.728316,-0.0864 l -1.929953,0.14403 -2.045174,0.31686"
         style="fill:none;stroke:#000000;stroke-width:0.69999999;stroke-linecap:butt;stroke-linejoin:miter;stroke-miterlimit:4;stroke-dasharray:none;stroke-opacity:1" />
      <path
         sodipodi:nodetypes="ccccccc"
         inkscape:connector-curvature="0"
         id="path4614"
         d="m 72.8681,101.97807 -0.273703,0.15835 -0.05761,0.31686 0.288053,0.28805 0.374469,-0.0864 0.05761,-0.46089 c -0.05154,-0.15264 -0.260955,-0.29229 -0.388819,-0.21595 z"
         style="fill:none;stroke:#000000;stroke-width:0.69999999;stroke-linecap:butt;stroke-linejoin:miter;stroke-miterlimit:4;stroke-dasharray:none;stroke-opacity:1" />
      <path
         sodipodi:nodetypes="cccccscccc"
         inkscape:connector-curvature="0"
         id="path4616"
         d="m 84.404555,101.93478 v 0 l -0.390663,0.4442 0.07379,0.36253 0.259115,0.14396 c 0,0 0.17298,0.0863 0.2882,0.0863 0.115221,0 0.374469,-0.23045 0.374469,-0.23045 l -0.07198,-0.41746 -0.53294,-0.38908 v 0"
         style="fill:none;stroke:#000000;stroke-width:0.69999999;stroke-linecap:butt;stroke-linejoin:miter;stroke-miterlimit:4;stroke-dasharray:none;stroke-opacity:1" />
      <path
         inkscape:connector-curvature="0"
         id="path4618"
         d="m 91.166076,112.52283 -0.716904,-1.87326 -0.895067,-3.78369 -0.773013,-2.64452 -0.430216,-1.04796 -0.403271,-1.35384 -0.549797,-1.66668 -0.691642,-1.342603 -0.650957,-1.383284 -0.650959,-1.261232 -1.098491,-1.3426 -0.366162,-0.488218 -0.854382,-0.976436 c 0,0 -0.109543,-0.318561 -0.976436,-0.488219 -0.866895,-0.169656 -0.866895,-0.169656 -0.866895,-0.169656"
         style="fill:none;stroke:#000000;stroke-width:0.69999999;stroke-linecap:butt;stroke-linejoin:miter;stroke-miterlimit:4;stroke-dasharray:none;stroke-opacity:1" />
      <path
         inkscape:connector-curvature="0"
         id="path4620"
         d="m 83.939597,94.334943 -1.790135,-0.244109 c 0,0 -1.017121,-0.04068 -1.505338,-0.04068 -0.488219,0 -0.381389,0.06058 -1.464655,0.04068 -1.083267,-0.01989 -1.083267,-0.01989 -1.083267,-0.01989 l -1.238626,0.288053 -1.095635,0.382795 -2.048564,0.322441"
         style="fill:none;stroke:#000000;stroke-width:0.69999999;stroke-linecap:butt;stroke-linejoin:miter;stroke-miterlimit:4;stroke-dasharray:none;stroke-opacity:1" />
      <path
         inkscape:connector-curvature="0"
         id="path4622"
         d="m 91.100129,111.21916 1.301914,-0.44754 0.8137,-0.24411"
         style="fill:none;stroke:#000000;stroke-width:0.69999999;stroke-linecap:butt;stroke-linejoin:miter;stroke-miterlimit:4;stroke-dasharray:none;stroke-opacity:1" />
      <path
         inkscape:connector-curvature="0"
         id="path4624"
         d="m 94.354919,110.69025 c 0.244108,0.0407 0.773012,0.24411 0.773012,0.24411"
         style="fill:none;stroke:#000000;stroke-width:0.69999999;stroke-linecap:butt;stroke-linejoin:miter;stroke-miterlimit:4;stroke-dasharray:none;stroke-opacity:1" />
      <path
         inkscape:connector-curvature="0"
         id="path4626"
         d="m 93.988755,111.74806 0.366164,-1.05781 c 0,0 -0.122055,-1.54602 -0.16274,-1.99355 -0.04068,-0.44754 -0.244109,-2.31904 -0.244109,-2.31904 l -0.08137,-2.07493 -0.406848,-1.95287 -0.244109,-1.54603 -0.610272,-2.196977 -0.284798,-2.115613 -0.610272,-1.668079 -0.32548,-1.668078 -1.790131,-4.10917"
         style="fill:none;stroke:#000000;stroke-width:1.5;stroke-linecap:butt;stroke-linejoin:miter;stroke-miterlimit:4;stroke-dasharray:none;stroke-opacity:1" />
      <path
         inkscape:connector-curvature="0"
         id="path4628"
         d="m 93.988755,111.74806 -0.773012,-1.22055 -0.04068,-1.3426 -0.325477,-2.27835 -0.24411,-2.31903 c 0,0 -0.24411,-1.6274 -0.284795,-1.91219 -0.04069,-0.2848 -0.488217,-2.847942 -0.488217,-2.847942 0,0 -0.650957,-1.708763 -0.691642,-1.871503 -0.04068,-0.162739 -0.732327,-3.010679 -0.732327,-3.010679 L 89.838897,93.073713 88.943832,91.28358 87.967395,89.656186 86.90959,88.557695 86.095894,88.191531 c 0,0 -0.691644,-0.162739 -0.895067,-0.122055 -0.203424,0.04068 -0.732328,0.24411 -0.935751,0.366164 -0.203426,0.122055 -0.610274,0.244109 -0.813697,0.406848 -0.203426,0.16274 -0.732328,0.691643 -0.732328,0.691643 l -0.935751,1.708764 -0.541416,1.457737 v 0"
         style="fill:none;stroke:#000000;stroke-width:0.69999999;stroke-linecap:butt;stroke-linejoin:miter;stroke-miterlimit:4;stroke-dasharray:none;stroke-opacity:1" />
      <path
         inkscape:connector-curvature="0"
         id="path4630"
         d="m 95.290671,111.99217 -0.16274,-1.05781 -0.24411,-1.62739 -0.162739,-1.87151 c 0,0 -0.04068,-1.42396 -0.122055,-1.79013 -0.08137,-0.36616 -0.325478,-2.80725 -0.325478,-2.80725 l -0.122055,-2.31904 -0.244109,-1.830818 -0.406848,-2.034241 -0.406852,-1.505341 -0.602811,-1.616371"
         style="fill:none;stroke:#000000;stroke-width:0.69999999;stroke-linecap:butt;stroke-linejoin:miter;stroke-miterlimit:4;stroke-dasharray:none;stroke-opacity:1" />
      <path
         inkscape:connector-curvature="0"
         id="path4632"
         d="m 94.517659,103.20424 c 0,0 0.488217,-0.56959 0.773012,-0.56959 0.284792,0 1.301914,-0.24411 1.301914,-0.24411 l 1.098492,-0.28479 c 0,0 0.650957,-0.20342 0.895067,-0.20342 0.244107,0 1.668076,-0.12206 1.668076,-0.12206 0,0 0.8137,-0.12205 1.13918,-0.0814 0.32547,0.0407 1.5586,0.0622 1.5586,0.0622 v 0"
         style="fill:none;stroke:#000000;stroke-width:0.69999999;stroke-linecap:butt;stroke-linejoin:miter;stroke-miterlimit:4;stroke-dasharray:none;stroke-opacity:1" />
      <path
         inkscape:connector-curvature="0"
         id="path4634"
         d="m 101.96299,100.55973 c 0,0 -1.13918,-0.12206 -1.42397,-0.0814 -0.2848,0.0407 -1.342604,0.0814 -1.586714,0.16274 -0.24411,0.0814 -1.098492,0.20342 -1.301914,0.20342 -0.203425,0 -1.098492,0.12205 -1.383287,0.20342 -0.284792,0.0814 -0.854381,0.24411 -0.854381,0.24411 l -0.895065,0.36617"
         style="fill:none;stroke:#000000;stroke-width:0.69999999;stroke-linecap:butt;stroke-linejoin:miter;stroke-miterlimit:4;stroke-dasharray:none;stroke-opacity:1" />
      <path
         inkscape:connector-curvature="0"
         id="path4636"
         d="m 101.18997,101.82096 0.61027,1.30191 0.73233,1.8715 0.65096,2.23767 0.97644,3.66164 0.48822,2.19698"
         style="fill:none;stroke:#000000;stroke-width:0.69999999;stroke-linecap:butt;stroke-linejoin:miter;stroke-miterlimit:4;stroke-dasharray:none;stroke-opacity:1" />
      <path
         sodipodi:nodetypes="cscc"
         inkscape:connector-curvature="0"
         id="path4638"
         d="m 104.64819,113.09066 c 0.20013,-0.34403 0.30869,0.25226 0.32682,-0.35393 0.0447,-1.49477 -0.7765,-4.98631 -1.499,-7.00409 l -1.48115,-3.93963"
         style="fill:none;stroke:#000000;stroke-width:0.69999999;stroke-linecap:butt;stroke-linejoin:miter;stroke-miterlimit:4;stroke-dasharray:none;stroke-opacity:1" />
      <path
         inkscape:connector-curvature="0"
         id="path4640"
         d="m 105.84084,113.05386 c -0.17508,-0.52524 -1.19265,0.0368 -1.19265,0.0368 l -2.27836,0.56959 -2.563142,0.48822 -3.61582,0.86491"
         style="fill:none;stroke:#000000;stroke-width:0.69999999;stroke-linecap:butt;stroke-linejoin:miter;stroke-miterlimit:4;stroke-dasharray:none;stroke-opacity:1" />
      <path
         inkscape:connector-curvature="0"
         id="path4642"
         d="m 95.841314,117.54762 c 0.873326,-0.42916 2.460035,-1.24286 2.622775,-1.28355 0.16274,-0.0407 1.057804,-0.48821 1.586711,-0.48821 0.5289,0 1.62739,-0.5289 1.8715,-0.5289 0.24411,0 1.83082,-0.16274 1.83082,-0.16274 l 1.69205,-0.28288 v 0"
         style="fill:none;stroke:#000000;stroke-width:0.69999999;stroke-linecap:butt;stroke-linejoin:miter;stroke-miterlimit:4;stroke-dasharray:none;stroke-opacity:1" />
      <path
         inkscape:connector-curvature="0"
         id="path4644"
         d="m 100.44244,100.60876 -0.16113,0.32227 0.21484,0.18799 0.37598,0.10742 0.13427,-0.2417 -0.0268,-0.29541 -0.16113,-0.16113"
         style="fill:none;stroke:#000000;stroke-width:0.69999999;stroke-linecap:butt;stroke-linejoin:miter;stroke-miterlimit:4;stroke-dasharray:none;stroke-opacity:1" />
      <path
         inkscape:connector-curvature="0"
         id="path4646"
         d="m 105.49125,113.47249 -0.0268,0.29541 v 0.16113 l 0.13428,0.18798"
         style="fill:none;stroke:#000000;stroke-width:0.69999999;stroke-linecap:butt;stroke-linejoin:miter;stroke-miterlimit:4;stroke-dasharray:none;stroke-opacity:1" />
      <path
         inkscape:connector-curvature="0"
         id="path4648"
         d="m 105.59868,114.11701 0.54855,-0.49413 v 0"
         style="fill:none;stroke:#000000;stroke-width:0.69999999;stroke-linecap:butt;stroke-linejoin:miter;stroke-miterlimit:4;stroke-dasharray:none;stroke-opacity:1" />
      <path
         inkscape:connector-curvature="0"
         id="path4652"
         d="m 106.14723,113.62288 -0.65598,-0.15039 v 0"
         style="fill:none;stroke:#000000;stroke-width:0.69999999;stroke-linecap:butt;stroke-linejoin:miter;stroke-miterlimit:4;stroke-dasharray:none;stroke-opacity:1" />
      <path
         inkscape:connector-curvature="0"
         id="path4654"
         d="m 81.110674,115.96366 0.250552,0.27561 0.02506,0.37583 -0.300663,0.27561 -0.375828,0.0251 -0.250553,-0.15033 -0.125276,-0.27561 v -0.2255 l 0.175387,-0.27561 0.501105,-0.0251"
         style="fill:none;stroke:#000000;stroke-width:0.69999999;stroke-linecap:butt;stroke-linejoin:miter;stroke-miterlimit:4;stroke-dasharray:none;stroke-opacity:1" />
      <path
         inkscape:connector-curvature="0"
         id="path4656"
         d="m 95.918321,113.93419 -0.05011,-0.27561 -0.400883,-0.20044 c 0,0 -0.175387,-0.0752 -0.275609,-0.0752 -0.100221,0 -0.225496,0.0501 -0.300662,0.15033 -0.07516,0.10023 -0.100221,0.15034 -0.07516,0.37583 0.02506,0.2255 0.02506,0.40089 0.07516,0.50111 0.05011,0.10022 0.200441,0.37583 0.200441,0.37583 l 0.300664,0.15033 c 0,0 -0.347713,-0.12708 0.225497,-0.0251 0.573211,0.10203 0.300661,-0.97715 0.300661,-0.97715 z"
         style="fill:none;stroke:#000000;stroke-width:0.69999999;stroke-linecap:butt;stroke-linejoin:miter;stroke-miterlimit:4;stroke-dasharray:none;stroke-opacity:1" />
      <path
         inkscape:connector-curvature="0"
         id="path4658"
         d="m 93.56313,114.73596 -0.42594,0.37583 -0.551214,0.0251 -0.450995,-0.27561 c 0,0 -0.07517,-0.0752 -0.100222,-0.25055 -0.02506,-0.17539 -0.100219,-0.35077 -0.05011,-0.451 0.05011,-0.10022 0.07516,-0.25055 0.125274,-0.37582 0.05011,-0.12528 0.175387,-0.17539 0.300662,-0.2255 0.125275,-0.0501 0.225499,-0.17539 0.476049,-0.12528 0.250555,0.0501 0.37583,0.0251 0.526161,0.15033 0.150331,0.12528 0.300662,0.451 0.300662,0.451 0,0 0.02506,0.20044 0.02506,0.32572 0,0.12527 -0.175387,0.37582 -0.175387,0.37582 z"
         style="fill:none;stroke:#000000;stroke-width:0.69999999;stroke-linecap:butt;stroke-linejoin:miter;stroke-miterlimit:4;stroke-dasharray:none;stroke-opacity:1" />
      <path
         inkscape:connector-curvature="0"
         id="path4660"
         d="m 92.861582,114.05947 h -0.225497 l -0.175387,0.15033 0.07516,0.25055 c 0,0 0.05011,0.10022 0.200443,0.10022 0.150331,0 0.250555,-0.0752 0.250555,-0.0752 l 0.100219,-0.17539 -0.05011,-0.20043 -0.150329,-0.15034"
         style="fill:none;stroke:#000000;stroke-width:0.69999999;stroke-linecap:butt;stroke-linejoin:miter;stroke-miterlimit:4;stroke-dasharray:none;stroke-opacity:1" />
      <path
         inkscape:connector-curvature="0"
         id="path4664"
         d="m 95.367104,113.95925 -0.175387,0.17538 0.131247,0.36258 0.150301,0.0752 0.175353,-0.0376 c 0,0 0.100203,-0.0877 0.100203,-0.1503 0,-0.0626 0,-0.21293 0,-0.21293 l -0.125251,-0.13778 -0.150305,-0.0752 z"
         style="fill:none;stroke:#000000;stroke-width:0.69999999;stroke-linecap:butt;stroke-linejoin:miter;stroke-miterlimit:4;stroke-dasharray:none;stroke-opacity:1" />
      <path
         sodipodi:nodetypes="ccccsccsccsssc"
         inkscape:connector-curvature="0"
         id="path4895"
         d="m 92.318675,127.35084 -1.211677,-0.40389 -1.759816,-0.83663 c 0,0 -1.500173,-0.80779 -1.759818,-0.89434 -0.259645,-0.0866 -0.865481,-0.34619 -1.00973,-0.34619 -0.144249,0 -0.519289,-0.0865 -0.519289,-0.0865 h -0.952033 c 0,0 -1.730967,0.1154 -1.846364,0.1154 -0.115398,0 -1.355924,0.17309 -1.355924,0.17309 0,0 -0.256774,0.45092 -1.091623,0.72179 -0.158927,0.0516 -1.426175,0.40609 -1.948408,0.53123 -0.114958,0.0276 -0.127726,-0.11999 -0.276133,-0.64655 -0.07335,-0.26024 -0.222304,-0.88207 -0.349603,-1.09226 -0.391208,-0.64593 -1.096856,-0.78335 -1.096856,-0.78335"
         style="fill:none;stroke:#000000;stroke-width:1.5;stroke-linecap:butt;stroke-linejoin:miter;stroke-miterlimit:4;stroke-dasharray:none;stroke-opacity:1" />
      <path
         inkscape:connector-curvature="0"
         id="path4522"
         d="m 78.824255,126.2849 c 0,0 -0.09367,0.0562 -0.333587,0.33591 -0.292147,0.33727 -0.758848,0.86412 -0.856365,0.90312 -0.144246,0.0577 -1.03858,0.57699 -1.03858,0.57699 0,0 -0.721236,0.60584 -0.836634,0.66354 -0.115397,0.0577 -1.009729,0.46159 -1.009729,0.46159 l -0.807786,0.14425 c 0,0 -0.548139,0.0289 -0.634688,-0.1731 -0.08655,-0.20194 -0.403892,-1.26937 -0.403892,-1.26937 l -0.02885,-0.75009 -0.02885,-0.77893 c 0,0 0,-0.37505 0.08655,-0.51929 0.08655,-0.14425 0.201946,-0.57699 0.346193,-0.60584 0.144247,-0.0289 0.49044,0.20195 0.634688,0.37504 0.144247,0.1731 0.403892,0.3462 0.403892,0.3462 l 0.288494,-0.43275 -0.08655,-0.75008 0.288495,-0.66354 c 0,0 0.317344,-0.25965 0.51929,-0.25965 0.201946,0 0.634689,-0.0289 0.634689,-0.0289 l 0.490438,-0.25964 0.412151,0.20608 0.277777,-0.004 0.768159,0.43688 0.561376,0.60147 0.147243,0.95688 z"
         style="fill:none;stroke:#000000;stroke-width:0.69999999;stroke-linecap:butt;stroke-linejoin:miter;stroke-miterlimit:4;stroke-dasharray:none;stroke-opacity:1" />
      <path
         inkscape:connector-curvature="0"
         id="path4538"
         d="m 107.32039,125.30253 -0.0577,-1.47132 v -0.80779 l -0.20194,-0.75008 -0.5193,0.2308 -0.20194,-0.6347 c 0,0 0.11539,-0.54813 -0.1154,-0.63468 -0.2308,-0.0865 -0.20195,-0.31735 -0.3462,-0.1731 -0.14424,0.14425 -0.49043,0.98088 -0.49043,1.12513 0,0.14425 -0.0288,0.49044 -0.0577,0.75008 -0.0289,0.25965 -0.2308,0.66354 -0.2308,0.66354 l -0.69239,-0.28849 c 0,0 0.0289,-0.69239 0.0866,-0.80778 0.0577,-0.1154 0.25965,-0.95204 0.25965,-0.95204 l 0.14424,-0.72123 c 0,0 0.54814,-0.37505 0.0577,-0.2885 -0.49044,0.0865 -1.35592,0.1154 -1.47132,0.14425 -0.1154,0.0288 -0.92319,0.0865 -0.92319,0.0865 h -0.54813 l -0.34619,1.58672 0.17309,1.00973 -0.92318,0.25964 c 0,0 -0.0288,-0.49044 -0.0288,-0.75008 0,-0.25965 0,-0.92318 0.0577,-1.06743 0.0577,-0.14425 0.1731,-1.00973 0.1731,-1.00973 l -0.43275,-0.63469 c 0,0 -0.34619,-0.75008 -0.37504,-1.09628 -0.0289,-0.34619 -0.14424,-1.00973 -0.11539,-1.15398 0.0288,-0.14424 0.40389,-0.83663 0.51929,-0.92318 0.11539,-0.0865 0.63468,-0.66354 0.63468,-0.66354 0,0 0.77894,-0.11539 1.03858,-0.11539 0.25965,0 1.03858,0.0288 1.03858,0.0288 l 0.69239,0.40389 1.09628,0.14425 -0.0866,-0.60584 -0.2308,-0.86548 0.54814,-0.51929 0.74583,0.22219"
         style="fill:none;fill-opacity:1;stroke:#000000;stroke-width:0.69999999;stroke-linecap:butt;stroke-linejoin:miter;stroke-miterlimit:4;stroke-dasharray:none;stroke-opacity:1" />
      <path
         sodipodi:nodetypes="ccccc"
         inkscape:connector-curvature="0"
         id="path4524"
         d="m 80.282469,125.98594 -1.176843,-1.05845 -0.692386,-0.77894 -0.750087,-0.1731 -1.211678,-0.37504"
         style="fill:none;stroke:#000000;stroke-width:0.69999999;stroke-linecap:butt;stroke-linejoin:miter;stroke-miterlimit:4;stroke-dasharray:none;stroke-opacity:1" />
    </g>
  </g>
</svg>
